<mxfile host="app.diagrams.net" modified="2022-03-12T15:11:30.208Z" agent="5.0 (Macintosh; Intel Mac OS X 10_15_7) AppleWebKit/605.1.15 (KHTML, like Gecko) Version/15.3 Safari/605.1.15" etag="vRrypqDFTnerHkglBkXx" version="17.1.2" type="github">
  <diagram id="KRs9ITHMd8kug6_vHGvV" name="Page-1">
    <mxGraphModel dx="2880" dy="2700" grid="1" gridSize="10" guides="1" tooltips="1" connect="1" arrows="1" fold="1" page="0" pageScale="1" pageWidth="827" pageHeight="1169" background="none" math="0" shadow="0">
      <root>
        <mxCell id="0" />
        <mxCell id="1" parent="0" />
        <mxCell id="NEAT874ut31OaDpRPA5h-107" value="" style="rounded=0;whiteSpace=wrap;html=1;hachureGap=4;fontSize=10;strokeColor=#FF8000;fillColor=none;fontColor=#000000;" vertex="1" parent="1">
          <mxGeometry x="2440" y="-340" width="1150" height="1160" as="geometry" />
        </mxCell>
        <mxCell id="NEAT874ut31OaDpRPA5h-304" value="" style="rounded=0;whiteSpace=wrap;html=1;hachureGap=4;fontSize=10;strokeColor=#FF8000;fillColor=none;fontColor=#000000;" vertex="1" parent="1">
          <mxGeometry x="1240" y="-341" width="1120" height="2000" as="geometry" />
        </mxCell>
        <mxCell id="NEAT874ut31OaDpRPA5h-1" value="Smart Videohub 20x20" style="rounded=0;whiteSpace=wrap;html=1;hachureGap=4;fontSize=10;strokeColor=#FF8000;connectable=0;" vertex="1" parent="1">
          <mxGeometry x="2540" y="280" width="950" height="80" as="geometry" />
        </mxCell>
        <mxCell id="NEAT874ut31OaDpRPA5h-8" value="ATEM Television Studio HD" style="rounded=0;whiteSpace=wrap;html=1;hachureGap=4;fontSize=10;strokeColor=#FF8000;connectable=0;" vertex="1" parent="1">
          <mxGeometry x="2540" y="40" width="180" height="80" as="geometry" />
        </mxCell>
        <mxCell id="NEAT874ut31OaDpRPA5h-9" value="Beamer" style="rounded=0;whiteSpace=wrap;html=1;hachureGap=4;fontSize=10;strokeColor=#FF8000;connectable=0;horizontal=0;" vertex="1" parent="1">
          <mxGeometry x="3400" y="-240" width="40" height="80" as="geometry" />
        </mxCell>
        <mxCell id="NEAT874ut31OaDpRPA5h-11" value="MultiView 4" style="rounded=0;whiteSpace=wrap;html=1;hachureGap=4;fontSize=10;strokeColor=#FF8000;connectable=0;" vertex="1" parent="1">
          <mxGeometry x="3080" y="40" width="210" height="80" as="geometry" />
        </mxCell>
        <mxCell id="NEAT874ut31OaDpRPA5h-13" value="CAMERA 1" style="endArrow=none;html=1;rounded=0;fontSize=12;startSize=14;endSize=14;sourcePerimeterSpacing=8;targetPerimeterSpacing=8;horizontal=0;edgeStyle=orthogonalEdgeStyle;" edge="1" parent="1">
          <mxGeometry width="50" height="50" relative="1" as="geometry">
            <mxPoint x="2560" y="280" as="sourcePoint" />
            <mxPoint x="2560" y="120" as="targetPoint" />
          </mxGeometry>
        </mxCell>
        <mxCell id="NEAT874ut31OaDpRPA5h-14" value="CAMERA 2" style="endArrow=none;html=1;rounded=0;fontSize=12;startSize=14;endSize=14;sourcePerimeterSpacing=8;targetPerimeterSpacing=8;horizontal=0;edgeStyle=orthogonalEdgeStyle;" edge="1" parent="1">
          <mxGeometry width="50" height="50" relative="1" as="geometry">
            <mxPoint x="2580" y="280" as="sourcePoint" />
            <mxPoint x="2580" y="120" as="targetPoint" />
          </mxGeometry>
        </mxCell>
        <mxCell id="NEAT874ut31OaDpRPA5h-15" value="CAMERA 3" style="endArrow=none;html=1;rounded=0;fontSize=12;startSize=14;endSize=14;sourcePerimeterSpacing=8;targetPerimeterSpacing=8;horizontal=0;edgeStyle=orthogonalEdgeStyle;" edge="1" parent="1">
          <mxGeometry width="50" height="50" relative="1" as="geometry">
            <mxPoint x="2600" y="280" as="sourcePoint" />
            <mxPoint x="2600" y="120" as="targetPoint" />
          </mxGeometry>
        </mxCell>
        <mxCell id="NEAT874ut31OaDpRPA5h-16" value="CAMERA 4" style="endArrow=none;html=1;rounded=0;fontSize=12;startSize=14;endSize=14;sourcePerimeterSpacing=8;targetPerimeterSpacing=8;horizontal=0;edgeStyle=orthogonalEdgeStyle;" edge="1" parent="1">
          <mxGeometry width="50" height="50" relative="1" as="geometry">
            <mxPoint x="2620" y="280" as="sourcePoint" />
            <mxPoint x="2620" y="120" as="targetPoint" />
          </mxGeometry>
        </mxCell>
        <mxCell id="NEAT874ut31OaDpRPA5h-17" value="CAMERA 5" style="endArrow=none;html=1;rounded=0;fontSize=12;startSize=14;endSize=14;sourcePerimeterSpacing=8;targetPerimeterSpacing=8;horizontal=0;edgeStyle=orthogonalEdgeStyle;" edge="1" parent="1">
          <mxGeometry width="50" height="50" relative="1" as="geometry">
            <mxPoint x="2640" y="280" as="sourcePoint" />
            <mxPoint x="2640" y="120" as="targetPoint" />
          </mxGeometry>
        </mxCell>
        <mxCell id="NEAT874ut31OaDpRPA5h-18" value="CAMERA 6" style="endArrow=none;html=1;rounded=0;fontSize=12;startSize=14;endSize=14;sourcePerimeterSpacing=8;targetPerimeterSpacing=8;horizontal=0;edgeStyle=orthogonalEdgeStyle;" edge="1" parent="1">
          <mxGeometry width="50" height="50" relative="1" as="geometry">
            <mxPoint x="2660" y="280" as="sourcePoint" />
            <mxPoint x="2660" y="120" as="targetPoint" />
          </mxGeometry>
        </mxCell>
        <mxCell id="NEAT874ut31OaDpRPA5h-19" value="QLAB VIDEO" style="endArrow=none;html=1;rounded=0;fontSize=12;startSize=14;endSize=14;sourcePerimeterSpacing=8;targetPerimeterSpacing=8;horizontal=0;edgeStyle=orthogonalEdgeStyle;" edge="1" parent="1">
          <mxGeometry width="50" height="50" relative="1" as="geometry">
            <mxPoint x="2680" y="280" as="sourcePoint" />
            <mxPoint x="2680" y="120" as="targetPoint" />
          </mxGeometry>
        </mxCell>
        <mxCell id="NEAT874ut31OaDpRPA5h-20" value="SONGS" style="endArrow=none;html=1;rounded=0;fontSize=12;startSize=14;endSize=14;sourcePerimeterSpacing=8;targetPerimeterSpacing=8;horizontal=0;edgeStyle=orthogonalEdgeStyle;" edge="1" parent="1">
          <mxGeometry width="50" height="50" relative="1" as="geometry">
            <mxPoint x="2700" y="280" as="sourcePoint" />
            <mxPoint x="2700" y="120" as="targetPoint" />
          </mxGeometry>
        </mxCell>
        <mxCell id="NEAT874ut31OaDpRPA5h-21" value="PROGRAM" style="endArrow=none;html=1;rounded=0;fontSize=12;startSize=14;endSize=14;sourcePerimeterSpacing=8;targetPerimeterSpacing=8;horizontal=0;edgeStyle=orthogonalEdgeStyle;" edge="1" parent="1">
          <mxGeometry width="50" height="50" relative="1" as="geometry">
            <mxPoint x="3130" y="280" as="sourcePoint" />
            <mxPoint x="3130" y="120" as="targetPoint" />
          </mxGeometry>
        </mxCell>
        <mxCell id="NEAT874ut31OaDpRPA5h-22" value="STAGE SONGS" style="endArrow=none;html=1;rounded=0;fontSize=12;startSize=14;endSize=14;sourcePerimeterSpacing=8;targetPerimeterSpacing=8;labelPosition=center;verticalLabelPosition=middle;align=center;verticalAlign=middle;horizontal=0;edgeStyle=orthogonalEdgeStyle;" edge="1" parent="1">
          <mxGeometry width="50" height="50" relative="1" as="geometry">
            <mxPoint x="3150" y="280" as="sourcePoint" />
            <mxPoint x="3150" y="120" as="targetPoint" />
          </mxGeometry>
        </mxCell>
        <mxCell id="NEAT874ut31OaDpRPA5h-23" value="SONGS" style="endArrow=none;html=1;rounded=0;fontSize=12;startSize=14;endSize=14;sourcePerimeterSpacing=8;targetPerimeterSpacing=8;horizontal=0;edgeStyle=orthogonalEdgeStyle;" edge="1" parent="1">
          <mxGeometry width="50" height="50" relative="1" as="geometry">
            <mxPoint x="3170" y="280" as="sourcePoint" />
            <mxPoint x="3170" y="120" as="targetPoint" />
          </mxGeometry>
        </mxCell>
        <mxCell id="NEAT874ut31OaDpRPA5h-24" value="KLOK" style="endArrow=none;html=1;rounded=0;fontSize=12;startSize=14;endSize=14;sourcePerimeterSpacing=8;targetPerimeterSpacing=8;horizontal=0;edgeStyle=orthogonalEdgeStyle;" edge="1" parent="1">
          <mxGeometry width="50" height="50" relative="1" as="geometry">
            <mxPoint x="3190" y="280" as="sourcePoint" />
            <mxPoint x="3190" y="120" as="targetPoint" />
          </mxGeometry>
        </mxCell>
        <mxCell id="NEAT874ut31OaDpRPA5h-28" value="Mac Mini&lt;br&gt;GCGTECH1" style="rounded=0;whiteSpace=wrap;html=1;hachureGap=4;fontSize=10;strokeColor=#FF8000;connectable=0;" vertex="1" parent="1">
          <mxGeometry x="3100" y="650" width="80" height="80" as="geometry" />
        </mxCell>
        <mxCell id="NEAT874ut31OaDpRPA5h-29" value="Mac Mini &lt;br&gt;GCGTECH2" style="rounded=0;whiteSpace=wrap;html=1;hachureGap=4;fontSize=10;strokeColor=#FF8000;connectable=0;" vertex="1" parent="1">
          <mxGeometry x="3190" y="650" width="100" height="80" as="geometry" />
        </mxCell>
        <mxCell id="NEAT874ut31OaDpRPA5h-30" value="STAGE SONGS" style="endArrow=none;html=1;rounded=0;fontSize=12;startSize=14;endSize=14;sourcePerimeterSpacing=8;targetPerimeterSpacing=8;horizontal=0;edgeStyle=orthogonalEdgeStyle;" edge="1" parent="1">
          <mxGeometry width="50" height="50" relative="1" as="geometry">
            <mxPoint x="3250" y="650" as="sourcePoint" />
            <mxPoint x="3250" y="360" as="targetPoint" />
          </mxGeometry>
        </mxCell>
        <mxCell id="NEAT874ut31OaDpRPA5h-31" value="SONGS" style="endArrow=none;html=1;rounded=0;fontSize=12;startSize=14;endSize=14;sourcePerimeterSpacing=8;targetPerimeterSpacing=8;horizontal=0;edgeStyle=orthogonalEdgeStyle;" edge="1" parent="1">
          <mxGeometry width="50" height="50" relative="1" as="geometry">
            <mxPoint x="3270" y="650" as="sourcePoint" />
            <mxPoint x="3270" y="360" as="targetPoint" />
          </mxGeometry>
        </mxCell>
        <mxCell id="NEAT874ut31OaDpRPA5h-33" value="QLAB VIDEO" style="endArrow=none;html=1;rounded=0;fontSize=12;startSize=14;endSize=14;sourcePerimeterSpacing=8;targetPerimeterSpacing=8;horizontal=0;edgeStyle=orthogonalEdgeStyle;" edge="1" parent="1">
          <mxGeometry width="50" height="50" relative="1" as="geometry">
            <mxPoint x="3120" y="650" as="sourcePoint" />
            <mxPoint x="3120" y="360" as="targetPoint" />
          </mxGeometry>
        </mxCell>
        <mxCell id="NEAT874ut31OaDpRPA5h-34" value="MacBook" style="rounded=0;whiteSpace=wrap;html=1;hachureGap=4;fontSize=10;strokeColor=#FF8000;connectable=0;horizontal=0;" vertex="1" parent="1">
          <mxGeometry x="3020" y="650" width="40" height="80" as="geometry" />
        </mxCell>
        <mxCell id="NEAT874ut31OaDpRPA5h-35" value="KLOK" style="endArrow=none;html=1;rounded=0;fontSize=12;startSize=14;endSize=14;sourcePerimeterSpacing=8;targetPerimeterSpacing=8;horizontal=0;edgeStyle=orthogonalEdgeStyle;" edge="1" parent="1">
          <mxGeometry width="50" height="50" relative="1" as="geometry">
            <mxPoint x="3040" y="650" as="sourcePoint" />
            <mxPoint x="3040" y="360" as="targetPoint" />
          </mxGeometry>
        </mxCell>
        <mxCell id="NEAT874ut31OaDpRPA5h-36" value="PROGRAM" style="endArrow=none;html=1;rounded=0;fontSize=12;startSize=14;endSize=14;sourcePerimeterSpacing=8;targetPerimeterSpacing=8;horizontal=0;edgeStyle=orthogonalEdgeStyle;" edge="1" parent="1">
          <mxGeometry width="50" height="50" relative="1" as="geometry">
            <mxPoint x="3050" y="280" as="sourcePoint" />
            <mxPoint x="3050" y="120" as="targetPoint" />
          </mxGeometry>
        </mxCell>
        <mxCell id="NEAT874ut31OaDpRPA5h-38" value="MULTI VIEW - CAMERA" style="endArrow=baseDash;html=1;rounded=0;fontSize=12;startSize=14;endSize=14;sourcePerimeterSpacing=8;targetPerimeterSpacing=8;horizontal=0;endFill=0;edgeStyle=orthogonalEdgeStyle;" edge="1" parent="1">
          <mxGeometry width="50" height="50" relative="1" as="geometry">
            <mxPoint x="2640" y="40" as="sourcePoint" />
            <mxPoint x="2640" y="-120" as="targetPoint" />
          </mxGeometry>
        </mxCell>
        <mxCell id="NEAT874ut31OaDpRPA5h-39" value="PROGRAM" style="endArrow=baseDash;html=1;rounded=0;fontSize=12;startSize=14;endSize=14;sourcePerimeterSpacing=8;targetPerimeterSpacing=8;horizontal=0;endFill=0;edgeStyle=orthogonalEdgeStyle;" edge="1" parent="1">
          <mxGeometry width="50" height="50" relative="1" as="geometry">
            <mxPoint x="2620" y="40" as="sourcePoint" />
            <mxPoint x="2620" y="-120" as="targetPoint" />
          </mxGeometry>
        </mxCell>
        <mxCell id="NEAT874ut31OaDpRPA5h-40" value="AUX" style="endArrow=baseDash;html=1;rounded=0;fontSize=12;startSize=14;endSize=14;sourcePerimeterSpacing=8;targetPerimeterSpacing=8;horizontal=0;endFill=0;edgeStyle=orthogonalEdgeStyle;" edge="1" parent="1">
          <mxGeometry width="50" height="50" relative="1" as="geometry">
            <mxPoint x="2600" y="40" as="sourcePoint" />
            <mxPoint x="2600" y="-120" as="targetPoint" />
          </mxGeometry>
        </mxCell>
        <mxCell id="NEAT874ut31OaDpRPA5h-42" value="Stage display 1" style="rounded=0;whiteSpace=wrap;html=1;hachureGap=4;fontSize=10;strokeColor=#FF8000;connectable=0;horizontal=0;" vertex="1" parent="1">
          <mxGeometry x="3150" y="-240" width="40" height="80" as="geometry" />
        </mxCell>
        <mxCell id="NEAT874ut31OaDpRPA5h-43" value="STAGE SONGS" style="endArrow=none;html=1;rounded=0;fontSize=12;startSize=14;endSize=14;sourcePerimeterSpacing=8;targetPerimeterSpacing=8;labelPosition=center;verticalLabelPosition=middle;align=center;verticalAlign=middle;horizontal=0;edgeStyle=orthogonalEdgeStyle;" edge="1" parent="1">
          <mxGeometry width="50" height="50" relative="1" as="geometry">
            <mxPoint x="3170" y="40" as="sourcePoint" />
            <mxPoint x="3170" y="-160" as="targetPoint" />
          </mxGeometry>
        </mxCell>
        <mxCell id="NEAT874ut31OaDpRPA5h-44" value="KLOK" style="endArrow=none;html=1;rounded=0;fontSize=12;startSize=14;endSize=14;sourcePerimeterSpacing=8;targetPerimeterSpacing=8;horizontal=0;edgeStyle=orthogonalEdgeStyle;" edge="1" parent="1">
          <mxGeometry width="50" height="50" relative="1" as="geometry">
            <mxPoint x="3220" y="40" as="sourcePoint" />
            <mxPoint x="3220" y="-160" as="targetPoint" />
          </mxGeometry>
        </mxCell>
        <mxCell id="NEAT874ut31OaDpRPA5h-45" value="Mini converter&lt;br&gt;SDI Distribution" style="rounded=0;whiteSpace=wrap;html=1;hachureGap=4;fontSize=10;strokeColor=#FF8000;connectable=0;horizontal=1;" vertex="1" parent="1">
          <mxGeometry x="2730" y="40" width="290" height="80" as="geometry" />
        </mxCell>
        <mxCell id="NEAT874ut31OaDpRPA5h-46" value="PROGRAM" style="endArrow=none;html=1;rounded=0;fontSize=12;startSize=14;endSize=14;sourcePerimeterSpacing=8;targetPerimeterSpacing=8;horizontal=0;edgeStyle=orthogonalEdgeStyle;" edge="1" parent="1">
          <mxGeometry width="50" height="50" relative="1" as="geometry">
            <mxPoint x="2874.66" y="280" as="sourcePoint" />
            <mxPoint x="2874.66" y="120" as="targetPoint" />
          </mxGeometry>
        </mxCell>
        <mxCell id="NEAT874ut31OaDpRPA5h-47" value="Webpresenter HD" style="rounded=0;whiteSpace=wrap;html=1;hachureGap=4;fontSize=10;strokeColor=#FF8000;connectable=0;horizontal=0;" vertex="1" parent="1">
          <mxGeometry x="3030" y="40" width="40" height="80" as="geometry" />
        </mxCell>
        <mxCell id="NEAT874ut31OaDpRPA5h-48" value="PROGRAM" style="endArrow=none;html=1;rounded=0;fontSize=12;startSize=14;endSize=14;sourcePerimeterSpacing=8;targetPerimeterSpacing=8;horizontal=0;edgeStyle=orthogonalEdgeStyle;" edge="1" parent="1">
          <mxGeometry width="50" height="50" relative="1" as="geometry">
            <mxPoint x="3420" y="280" as="sourcePoint" />
            <mxPoint x="3420" y="-160" as="targetPoint" />
          </mxGeometry>
        </mxCell>
        <mxCell id="NEAT874ut31OaDpRPA5h-49" value="20&lt;br&gt;15" style="text;html=1;align=right;verticalAlign=middle;resizable=0;points=[];autosize=1;strokeColor=none;fillColor=none;hachureGap=4;fontSize=10;" vertex="1" parent="1">
          <mxGeometry x="2805" y="305" width="30" height="30" as="geometry" />
        </mxCell>
        <mxCell id="NEAT874ut31OaDpRPA5h-50" value="Display 1 &lt;br&gt;geluidsman" style="rounded=0;whiteSpace=wrap;html=1;hachureGap=4;fontSize=10;strokeColor=#FF8000;connectable=0;horizontal=0;" vertex="1" parent="1">
          <mxGeometry x="3450" y="-240" width="40" height="80" as="geometry" />
        </mxCell>
        <mxCell id="NEAT874ut31OaDpRPA5h-51" value="MULTI VIEW - SONGS" style="endArrow=none;html=1;rounded=0;fontSize=12;startSize=14;endSize=14;sourcePerimeterSpacing=8;targetPerimeterSpacing=8;horizontal=0;edgeStyle=orthogonalEdgeStyle;" edge="1" parent="1">
          <mxGeometry width="50" height="50" relative="1" as="geometry">
            <mxPoint x="3470" y="280" as="sourcePoint" />
            <mxPoint x="3470" y="-160" as="targetPoint" />
          </mxGeometry>
        </mxCell>
        <mxCell id="NEAT874ut31OaDpRPA5h-52" value="MULTI VIEW - SONGS" style="endArrow=baseDash;html=1;rounded=0;fontSize=12;startSize=14;endSize=14;sourcePerimeterSpacing=8;targetPerimeterSpacing=8;horizontal=0;edgeStyle=orthogonalEdgeStyle;endFill=0;" edge="1" parent="1">
          <mxGeometry width="50" height="50" relative="1" as="geometry">
            <mxPoint x="3100" y="40" as="sourcePoint" />
            <mxPoint x="3100" y="-120" as="targetPoint" />
          </mxGeometry>
        </mxCell>
        <mxCell id="NEAT874ut31OaDpRPA5h-53" value="AUX" style="endArrow=none;html=1;rounded=0;fontSize=12;startSize=14;endSize=14;sourcePerimeterSpacing=8;targetPerimeterSpacing=8;horizontal=0;endFill=0;edgeStyle=orthogonalEdgeStyle;startArrow=baseDash;startFill=0;" edge="1" parent="1">
          <mxGeometry width="50" height="50" relative="1" as="geometry">
            <mxPoint x="2800" y="600" as="sourcePoint" />
            <mxPoint x="2800" y="360" as="targetPoint" />
          </mxGeometry>
        </mxCell>
        <mxCell id="NEAT874ut31OaDpRPA5h-54" value="PROGRAM" style="endArrow=none;html=1;rounded=0;fontSize=12;startSize=14;endSize=14;sourcePerimeterSpacing=8;targetPerimeterSpacing=8;horizontal=0;endFill=0;edgeStyle=orthogonalEdgeStyle;startArrow=baseDash;startFill=0;" edge="1" parent="1">
          <mxGeometry width="50" height="50" relative="1" as="geometry">
            <mxPoint x="2780" y="600" as="sourcePoint" />
            <mxPoint x="2780" y="360" as="targetPoint" />
          </mxGeometry>
        </mxCell>
        <mxCell id="NEAT874ut31OaDpRPA5h-55" value="MULTI VIEW - CAMERA" style="endArrow=none;html=1;rounded=0;fontSize=12;startSize=14;endSize=14;sourcePerimeterSpacing=8;targetPerimeterSpacing=8;horizontal=0;endFill=0;edgeStyle=orthogonalEdgeStyle;startArrow=baseDash;startFill=0;" edge="1" parent="1">
          <mxGeometry width="50" height="50" relative="1" as="geometry">
            <mxPoint x="2880" y="600" as="sourcePoint" />
            <mxPoint x="2880" y="360" as="targetPoint" />
          </mxGeometry>
        </mxCell>
        <mxCell id="NEAT874ut31OaDpRPA5h-56" value="MULTI VIEW - SONGS" style="endArrow=none;html=1;rounded=0;fontSize=12;startSize=14;endSize=14;sourcePerimeterSpacing=8;targetPerimeterSpacing=8;horizontal=0;edgeStyle=orthogonalEdgeStyle;endFill=0;startArrow=baseDash;startFill=0;" edge="1" parent="1">
          <mxGeometry width="50" height="50" relative="1" as="geometry">
            <mxPoint x="2900" y="600" as="sourcePoint" />
            <mxPoint x="2900" y="360" as="targetPoint" />
          </mxGeometry>
        </mxCell>
        <mxCell id="NEAT874ut31OaDpRPA5h-57" value="CAMERA 1" style="endArrow=none;html=1;rounded=0;fontSize=12;startSize=14;endSize=14;sourcePerimeterSpacing=8;targetPerimeterSpacing=8;horizontal=0;edgeStyle=orthogonalEdgeStyle;endFill=0;startArrow=none;startFill=0;" edge="1" parent="1">
          <mxGeometry width="50" height="50" relative="1" as="geometry">
            <mxPoint x="2560" y="650" as="sourcePoint" />
            <mxPoint x="2560" y="360" as="targetPoint" />
          </mxGeometry>
        </mxCell>
        <mxCell id="NEAT874ut31OaDpRPA5h-58" value="CAMERA 2" style="endArrow=none;html=1;rounded=0;fontSize=12;startSize=14;endSize=14;sourcePerimeterSpacing=8;targetPerimeterSpacing=8;horizontal=0;edgeStyle=orthogonalEdgeStyle;endFill=0;startArrow=none;startFill=0;" edge="1" parent="1">
          <mxGeometry width="50" height="50" relative="1" as="geometry">
            <mxPoint x="2610" y="650" as="sourcePoint" />
            <mxPoint x="2610" y="360" as="targetPoint" />
          </mxGeometry>
        </mxCell>
        <mxCell id="NEAT874ut31OaDpRPA5h-59" value="CAMERA 3" style="endArrow=none;html=1;rounded=0;fontSize=12;startSize=14;endSize=14;sourcePerimeterSpacing=8;targetPerimeterSpacing=8;horizontal=0;edgeStyle=orthogonalEdgeStyle;endFill=0;startArrow=none;startFill=0;" edge="1" parent="1">
          <mxGeometry width="50" height="50" relative="1" as="geometry">
            <mxPoint x="2660" y="650" as="sourcePoint" />
            <mxPoint x="2660" y="360" as="targetPoint" />
          </mxGeometry>
        </mxCell>
        <mxCell id="NEAT874ut31OaDpRPA5h-60" value="CAMERA 4" style="endArrow=none;html=1;rounded=0;fontSize=12;startSize=14;endSize=14;sourcePerimeterSpacing=8;targetPerimeterSpacing=8;horizontal=0;edgeStyle=orthogonalEdgeStyle;endFill=0;startArrow=baseDash;startFill=0;" edge="1" parent="1">
          <mxGeometry width="50" height="50" relative="1" as="geometry">
            <mxPoint x="2700" y="600" as="sourcePoint" />
            <mxPoint x="2700" y="360" as="targetPoint" />
          </mxGeometry>
        </mxCell>
        <mxCell id="NEAT874ut31OaDpRPA5h-61" value="CAMERA 5" style="endArrow=none;html=1;rounded=0;fontSize=12;startSize=14;endSize=14;sourcePerimeterSpacing=8;targetPerimeterSpacing=8;horizontal=0;edgeStyle=orthogonalEdgeStyle;endFill=0;startArrow=baseDash;startFill=0;" edge="1" parent="1">
          <mxGeometry width="50" height="50" relative="1" as="geometry">
            <mxPoint x="2720" y="600" as="sourcePoint" />
            <mxPoint x="2720" y="360" as="targetPoint" />
          </mxGeometry>
        </mxCell>
        <mxCell id="NEAT874ut31OaDpRPA5h-62" value="CAMERA 6" style="endArrow=none;html=1;rounded=0;fontSize=12;startSize=14;endSize=14;sourcePerimeterSpacing=8;targetPerimeterSpacing=8;horizontal=0;edgeStyle=orthogonalEdgeStyle;endFill=0;startArrow=baseDash;startFill=0;" edge="1" parent="1">
          <mxGeometry width="50" height="50" relative="1" as="geometry">
            <mxPoint x="2740" y="600" as="sourcePoint" />
            <mxPoint x="2740" y="360" as="targetPoint" />
          </mxGeometry>
        </mxCell>
        <mxCell id="NEAT874ut31OaDpRPA5h-63" value="OUTPUTS&lt;br&gt;INPUTS" style="text;html=1;align=left;verticalAlign=middle;resizable=0;points=[];autosize=1;strokeColor=none;fillColor=none;hachureGap=4;fontSize=10;" vertex="1" parent="1">
          <mxGeometry x="2835" y="305" width="60" height="30" as="geometry" />
        </mxCell>
        <mxCell id="NEAT874ut31OaDpRPA5h-64" value="WEBPRESENTER" style="endArrow=baseDash;html=1;rounded=0;fontSize=12;startSize=14;endSize=14;sourcePerimeterSpacing=8;targetPerimeterSpacing=8;horizontal=0;edgeStyle=orthogonalEdgeStyle;endFill=0;" edge="1" parent="1">
          <mxGeometry width="50" height="50" relative="1" as="geometry">
            <mxPoint x="3050" y="40" as="sourcePoint" />
            <mxPoint x="3050" y="-120" as="targetPoint" />
          </mxGeometry>
        </mxCell>
        <mxCell id="NEAT874ut31OaDpRPA5h-65" value="WEBPRESENTER" style="endArrow=none;html=1;rounded=0;fontSize=12;startSize=14;endSize=14;sourcePerimeterSpacing=8;targetPerimeterSpacing=8;horizontal=0;edgeStyle=orthogonalEdgeStyle;endFill=0;startArrow=baseDash;startFill=0;" edge="1" parent="1">
          <mxGeometry width="50" height="50" relative="1" as="geometry">
            <mxPoint x="2840" y="600" as="sourcePoint" />
            <mxPoint x="2840" y="360" as="targetPoint" />
          </mxGeometry>
        </mxCell>
        <mxCell id="NEAT874ut31OaDpRPA5h-68" value="MULTI VIEW - SONGS" style="endArrow=none;html=1;rounded=0;fontSize=12;startSize=14;endSize=14;sourcePerimeterSpacing=8;targetPerimeterSpacing=8;horizontal=0;edgeStyle=orthogonalEdgeStyle;endFill=0;" edge="1" parent="1">
          <mxGeometry width="50" height="50" relative="1" as="geometry">
            <mxPoint x="3120" y="39.99999999999977" as="sourcePoint" />
            <mxPoint x="3120" y="-160" as="targetPoint" />
          </mxGeometry>
        </mxCell>
        <mxCell id="NEAT874ut31OaDpRPA5h-69" value="MULTI VIEW - ALLES" style="endArrow=none;html=1;rounded=0;fontSize=12;startSize=14;endSize=14;sourcePerimeterSpacing=8;targetPerimeterSpacing=8;horizontal=0;edgeStyle=orthogonalEdgeStyle;endFill=0;" edge="1" parent="1">
          <mxGeometry width="50" height="50" relative="1" as="geometry">
            <mxPoint x="3370" y="40" as="sourcePoint" />
            <mxPoint x="3370" y="-160" as="targetPoint" />
          </mxGeometry>
        </mxCell>
        <mxCell id="NEAT874ut31OaDpRPA5h-71" value="Stage display 2" style="rounded=0;whiteSpace=wrap;html=1;hachureGap=4;fontSize=10;strokeColor=#FF8000;connectable=0;horizontal=0;" vertex="1" parent="1">
          <mxGeometry x="3200" y="-240" width="40" height="80" as="geometry" />
        </mxCell>
        <mxCell id="NEAT874ut31OaDpRPA5h-72" value="Delay display 1" style="rounded=0;whiteSpace=wrap;html=1;hachureGap=4;fontSize=10;strokeColor=#FF8000;connectable=0;horizontal=0;" vertex="1" parent="1">
          <mxGeometry x="2730" y="-240" width="40" height="80" as="geometry" />
        </mxCell>
        <mxCell id="NEAT874ut31OaDpRPA5h-73" value="PROGRAM" style="endArrow=none;html=1;rounded=0;fontSize=12;startSize=14;endSize=14;sourcePerimeterSpacing=8;targetPerimeterSpacing=8;labelPosition=center;verticalLabelPosition=middle;align=center;verticalAlign=middle;horizontal=0;edgeStyle=orthogonalEdgeStyle;" edge="1" parent="1">
          <mxGeometry width="50" height="50" relative="1" as="geometry">
            <mxPoint x="2750" y="40" as="sourcePoint" />
            <mxPoint x="2750" y="-160" as="targetPoint" />
          </mxGeometry>
        </mxCell>
        <mxCell id="NEAT874ut31OaDpRPA5h-74" value="PROGRAM" style="endArrow=none;html=1;rounded=0;fontSize=12;startSize=14;endSize=14;sourcePerimeterSpacing=8;targetPerimeterSpacing=8;labelPosition=center;verticalLabelPosition=middle;align=center;verticalAlign=middle;horizontal=0;edgeStyle=orthogonalEdgeStyle;" edge="1" parent="1">
          <mxGeometry width="50" height="50" relative="1" as="geometry">
            <mxPoint x="2800" y="40" as="sourcePoint" />
            <mxPoint x="2800" y="-160" as="targetPoint" />
          </mxGeometry>
        </mxCell>
        <mxCell id="NEAT874ut31OaDpRPA5h-75" value="Delay display 2" style="rounded=0;whiteSpace=wrap;html=1;hachureGap=4;fontSize=10;strokeColor=#FF8000;connectable=0;horizontal=0;" vertex="1" parent="1">
          <mxGeometry x="2780" y="-240" width="40" height="80" as="geometry" />
        </mxCell>
        <mxCell id="NEAT874ut31OaDpRPA5h-76" value="PROGRAM" style="endArrow=none;html=1;rounded=0;fontSize=12;startSize=14;endSize=14;sourcePerimeterSpacing=8;targetPerimeterSpacing=8;labelPosition=center;verticalLabelPosition=middle;align=center;verticalAlign=middle;horizontal=0;edgeStyle=orthogonalEdgeStyle;" edge="1" parent="1">
          <mxGeometry width="50" height="50" relative="1" as="geometry">
            <mxPoint x="2850" y="40" as="sourcePoint" />
            <mxPoint x="2850" y="-160" as="targetPoint" />
          </mxGeometry>
        </mxCell>
        <mxCell id="NEAT874ut31OaDpRPA5h-77" value="Delay display 6" style="rounded=0;whiteSpace=wrap;html=1;hachureGap=4;fontSize=10;strokeColor=#FF8000;connectable=0;horizontal=0;" vertex="1" parent="1">
          <mxGeometry x="2980" y="-240" width="40" height="80" as="geometry" />
        </mxCell>
        <mxCell id="NEAT874ut31OaDpRPA5h-78" value="PROGRAM" style="endArrow=none;html=1;rounded=0;fontSize=12;startSize=14;endSize=14;sourcePerimeterSpacing=8;targetPerimeterSpacing=8;labelPosition=center;verticalLabelPosition=middle;align=center;verticalAlign=middle;horizontal=0;edgeStyle=orthogonalEdgeStyle;" edge="1" parent="1">
          <mxGeometry width="50" height="50" relative="1" as="geometry">
            <mxPoint x="2901" y="40" as="sourcePoint" />
            <mxPoint x="2901" y="-160" as="targetPoint" />
          </mxGeometry>
        </mxCell>
        <mxCell id="NEAT874ut31OaDpRPA5h-79" value="Delay display 3" style="rounded=0;whiteSpace=wrap;html=1;hachureGap=4;fontSize=10;strokeColor=#FF8000;connectable=0;horizontal=0;" vertex="1" parent="1">
          <mxGeometry x="2830" y="-240" width="40" height="80" as="geometry" />
        </mxCell>
        <mxCell id="NEAT874ut31OaDpRPA5h-80" value="PROGRAM" style="endArrow=none;html=1;rounded=0;fontSize=12;startSize=14;endSize=14;sourcePerimeterSpacing=8;targetPerimeterSpacing=8;labelPosition=center;verticalLabelPosition=middle;align=center;verticalAlign=middle;horizontal=0;edgeStyle=orthogonalEdgeStyle;" edge="1" parent="1">
          <mxGeometry width="50" height="50" relative="1" as="geometry">
            <mxPoint x="2950" y="40" as="sourcePoint" />
            <mxPoint x="2950" y="-160" as="targetPoint" />
          </mxGeometry>
        </mxCell>
        <mxCell id="NEAT874ut31OaDpRPA5h-81" value="Delay display 4" style="rounded=0;whiteSpace=wrap;html=1;hachureGap=4;fontSize=10;strokeColor=#FF8000;connectable=0;horizontal=0;" vertex="1" parent="1">
          <mxGeometry x="2881" y="-240" width="40" height="80" as="geometry" />
        </mxCell>
        <mxCell id="NEAT874ut31OaDpRPA5h-82" value="PROGRAM" style="endArrow=none;html=1;rounded=0;fontSize=12;startSize=14;endSize=14;sourcePerimeterSpacing=8;targetPerimeterSpacing=8;labelPosition=center;verticalLabelPosition=middle;align=center;verticalAlign=middle;horizontal=0;edgeStyle=orthogonalEdgeStyle;" edge="1" parent="1">
          <mxGeometry width="50" height="50" relative="1" as="geometry">
            <mxPoint x="3000" y="40" as="sourcePoint" />
            <mxPoint x="3000" y="-160" as="targetPoint" />
          </mxGeometry>
        </mxCell>
        <mxCell id="NEAT874ut31OaDpRPA5h-83" value="Delay display 5" style="rounded=0;whiteSpace=wrap;html=1;hachureGap=4;fontSize=10;strokeColor=#FF8000;connectable=0;horizontal=0;" vertex="1" parent="1">
          <mxGeometry x="2930" y="-240" width="40" height="80" as="geometry" />
        </mxCell>
        <mxCell id="NEAT874ut31OaDpRPA5h-84" value="Display 2&lt;br&gt;video regisseur" style="rounded=0;whiteSpace=wrap;html=1;hachureGap=4;fontSize=10;strokeColor=#FF8000;connectable=0;horizontal=0;" vertex="1" parent="1">
          <mxGeometry x="3350" y="-240" width="40" height="80" as="geometry" />
        </mxCell>
        <mxCell id="NEAT874ut31OaDpRPA5h-85" value="MULTI VIEW - CAMERA" style="endArrow=none;html=1;rounded=0;fontSize=12;startSize=14;endSize=14;sourcePerimeterSpacing=8;targetPerimeterSpacing=8;horizontal=0;endFill=0;edgeStyle=orthogonalEdgeStyle;" edge="1" parent="1">
          <mxGeometry width="50" height="50" relative="1" as="geometry">
            <mxPoint x="2660" y="40" as="sourcePoint" />
            <mxPoint x="2660" y="-160" as="targetPoint" />
          </mxGeometry>
        </mxCell>
        <mxCell id="NEAT874ut31OaDpRPA5h-86" value="Display 1&lt;br&gt;video regisseur" style="rounded=0;whiteSpace=wrap;html=1;hachureGap=4;fontSize=10;strokeColor=#FF8000;connectable=0;horizontal=0;" vertex="1" parent="1">
          <mxGeometry x="2640" y="-240" width="40" height="80" as="geometry" />
        </mxCell>
        <mxCell id="NEAT874ut31OaDpRPA5h-87" value="Display 2 &lt;br&gt;liedteksten" style="rounded=0;whiteSpace=wrap;html=1;hachureGap=4;fontSize=10;strokeColor=#FF8000;connectable=0;horizontal=0;" vertex="1" parent="1">
          <mxGeometry x="3100" y="-240" width="40" height="80" as="geometry" />
        </mxCell>
        <mxCell id="NEAT874ut31OaDpRPA5h-88" value="MultiView 4" style="rounded=0;whiteSpace=wrap;html=1;hachureGap=4;fontSize=10;strokeColor=#FF8000;connectable=0;" vertex="1" parent="1">
          <mxGeometry x="3300" y="40" width="100" height="80" as="geometry" />
        </mxCell>
        <mxCell id="NEAT874ut31OaDpRPA5h-89" value="MULTI VIEW - SONGS" style="endArrow=none;html=1;rounded=0;fontSize=12;startSize=14;endSize=14;sourcePerimeterSpacing=8;targetPerimeterSpacing=8;horizontal=0;edgeStyle=orthogonalEdgeStyle;" edge="1" parent="1">
          <mxGeometry width="50" height="50" relative="1" as="geometry">
            <mxPoint x="3320" y="280" as="sourcePoint" />
            <mxPoint x="3320" y="120" as="targetPoint" />
          </mxGeometry>
        </mxCell>
        <mxCell id="NEAT874ut31OaDpRPA5h-90" value="WEBPRESENTER" style="endArrow=none;html=1;rounded=0;fontSize=12;startSize=14;endSize=14;sourcePerimeterSpacing=8;targetPerimeterSpacing=8;labelPosition=center;verticalLabelPosition=middle;align=center;verticalAlign=middle;horizontal=0;edgeStyle=orthogonalEdgeStyle;" edge="1" parent="1">
          <mxGeometry width="50" height="50" relative="1" as="geometry">
            <mxPoint x="3340" y="280" as="sourcePoint" />
            <mxPoint x="3340" y="120" as="targetPoint" />
          </mxGeometry>
        </mxCell>
        <mxCell id="NEAT874ut31OaDpRPA5h-91" value="AUX" style="endArrow=none;html=1;rounded=0;fontSize=12;startSize=14;endSize=14;sourcePerimeterSpacing=8;targetPerimeterSpacing=8;horizontal=0;edgeStyle=orthogonalEdgeStyle;" edge="1" parent="1">
          <mxGeometry width="50" height="50" relative="1" as="geometry">
            <mxPoint x="3360" y="280" as="sourcePoint" />
            <mxPoint x="3360" y="120" as="targetPoint" />
          </mxGeometry>
        </mxCell>
        <mxCell id="NEAT874ut31OaDpRPA5h-92" value="" style="endArrow=none;html=1;rounded=0;fontSize=12;startSize=14;endSize=14;sourcePerimeterSpacing=8;targetPerimeterSpacing=8;horizontal=0;edgeStyle=orthogonalEdgeStyle;" edge="1" parent="1">
          <mxGeometry width="50" height="50" relative="1" as="geometry">
            <mxPoint x="3380" y="280" as="sourcePoint" />
            <mxPoint x="3380" y="120" as="targetPoint" />
          </mxGeometry>
        </mxCell>
        <mxCell id="NEAT874ut31OaDpRPA5h-96" value="COMPUTERBEELD" style="endArrow=none;html=1;rounded=0;fontSize=12;startSize=14;endSize=14;sourcePerimeterSpacing=8;targetPerimeterSpacing=8;horizontal=0;endFill=0;edgeStyle=orthogonalEdgeStyle;" edge="1" parent="1">
          <mxGeometry width="50" height="50" relative="1" as="geometry">
            <mxPoint x="3210" y="650" as="sourcePoint" />
            <mxPoint x="3210" y="470" as="targetPoint" />
          </mxGeometry>
        </mxCell>
        <mxCell id="NEAT874ut31OaDpRPA5h-97" value="Display 1&lt;br&gt;liedteksten" style="rounded=0;whiteSpace=wrap;html=1;hachureGap=4;fontSize=10;strokeColor=#FF8000;connectable=0;horizontal=0;" vertex="1" parent="1">
          <mxGeometry x="3190" y="390" width="40" height="80" as="geometry" />
        </mxCell>
        <mxCell id="NEAT874ut31OaDpRPA5h-98" value="Display 3&lt;br&gt;video regisseur" style="rounded=0;whiteSpace=wrap;html=1;hachureGap=4;fontSize=10;strokeColor=#FF8000;connectable=0;horizontal=0;" vertex="1" parent="1">
          <mxGeometry x="3140" y="390" width="40" height="80" as="geometry" />
        </mxCell>
        <mxCell id="NEAT874ut31OaDpRPA5h-99" value="COMPUTERBEELD" style="endArrow=none;html=1;rounded=0;fontSize=12;startSize=14;endSize=14;sourcePerimeterSpacing=8;targetPerimeterSpacing=8;horizontal=0;endFill=0;edgeStyle=orthogonalEdgeStyle;" edge="1" parent="1">
          <mxGeometry width="50" height="50" relative="1" as="geometry">
            <mxPoint x="3160" y="650" as="sourcePoint" />
            <mxPoint x="3160" y="470" as="targetPoint" />
          </mxGeometry>
        </mxCell>
        <mxCell id="NEAT874ut31OaDpRPA5h-100" value="MULTI VIEW - ALLES" style="endArrow=none;html=1;rounded=0;fontSize=12;startSize=14;endSize=14;sourcePerimeterSpacing=8;targetPerimeterSpacing=8;horizontal=0;edgeStyle=orthogonalEdgeStyle;endFill=0;" edge="1" parent="1">
          <mxGeometry width="50" height="50" relative="1" as="geometry">
            <mxPoint x="3320" y="40" as="sourcePoint" />
            <mxPoint x="3320" y="-160" as="targetPoint" />
          </mxGeometry>
        </mxCell>
        <mxCell id="NEAT874ut31OaDpRPA5h-101" value="Display 1&lt;br&gt;video wall" style="rounded=0;whiteSpace=wrap;html=1;hachureGap=4;fontSize=10;strokeColor=#FF8000;connectable=0;horizontal=0;" vertex="1" parent="1">
          <mxGeometry x="3250" y="-240" width="40" height="80" as="geometry" />
        </mxCell>
        <mxCell id="NEAT874ut31OaDpRPA5h-102" value="KLOK" style="endArrow=none;html=1;rounded=0;fontSize=12;startSize=14;endSize=14;sourcePerimeterSpacing=8;targetPerimeterSpacing=8;horizontal=0;edgeStyle=orthogonalEdgeStyle;" edge="1" parent="1">
          <mxGeometry width="50" height="50" relative="1" as="geometry">
            <mxPoint x="3270" y="40" as="sourcePoint" />
            <mxPoint x="3270" y="-160.0000000000001" as="targetPoint" />
          </mxGeometry>
        </mxCell>
        <mxCell id="NEAT874ut31OaDpRPA5h-103" value="Display 2&lt;br&gt;video wall" style="rounded=0;whiteSpace=wrap;html=1;hachureGap=4;fontSize=10;strokeColor=#FF8000;connectable=0;horizontal=0;" vertex="1" parent="1">
          <mxGeometry x="3300" y="-240" width="40" height="80" as="geometry" />
        </mxCell>
        <mxCell id="NEAT874ut31OaDpRPA5h-104" value="Overview&lt;br&gt;Camera 1" style="rounded=0;whiteSpace=wrap;html=1;hachureGap=4;fontSize=10;strokeColor=#FF8000;connectable=0;horizontal=0;" vertex="1" parent="1">
          <mxGeometry x="2540" y="650" width="40" height="80" as="geometry" />
        </mxCell>
        <mxCell id="NEAT874ut31OaDpRPA5h-105" value="Camera 3" style="rounded=0;whiteSpace=wrap;html=1;hachureGap=4;fontSize=10;strokeColor=#FF8000;connectable=0;horizontal=0;" vertex="1" parent="1">
          <mxGeometry x="2640" y="650" width="40" height="80" as="geometry" />
        </mxCell>
        <mxCell id="NEAT874ut31OaDpRPA5h-106" value="Camera 2" style="rounded=0;whiteSpace=wrap;html=1;hachureGap=4;fontSize=10;strokeColor=#FF8000;connectable=0;horizontal=0;" vertex="1" parent="1">
          <mxGeometry x="2590" y="650" width="40" height="80" as="geometry" />
        </mxCell>
        <mxCell id="NEAT874ut31OaDpRPA5h-108" value="Smart Videohub 20x20" style="rounded=0;whiteSpace=wrap;html=1;hachureGap=4;fontSize=10;strokeColor=#FF8000;connectable=0;" vertex="1" parent="1">
          <mxGeometry x="1340" y="719" width="790" height="80" as="geometry" />
        </mxCell>
        <mxCell id="NEAT874ut31OaDpRPA5h-109" value="ATEM Television Studio HD" style="rounded=0;whiteSpace=wrap;html=1;hachureGap=4;fontSize=10;strokeColor=#FF8000;connectable=0;" vertex="1" parent="1">
          <mxGeometry x="1340" y="239" width="200" height="80" as="geometry" />
        </mxCell>
        <mxCell id="NEAT874ut31OaDpRPA5h-110" value="Beamer" style="rounded=0;whiteSpace=wrap;html=1;hachureGap=4;fontSize=10;strokeColor=#FF8000;connectable=0;horizontal=0;" vertex="1" parent="1">
          <mxGeometry x="1870" y="239" width="40" height="80" as="geometry" />
        </mxCell>
        <mxCell id="NEAT874ut31OaDpRPA5h-111" value="MultiView 4" style="rounded=0;whiteSpace=wrap;html=1;hachureGap=4;fontSize=10;strokeColor=#FF8000;connectable=0;" vertex="1" parent="1">
          <mxGeometry x="1560" y="239" width="100" height="80" as="geometry" />
        </mxCell>
        <mxCell id="NEAT874ut31OaDpRPA5h-112" value="INPUT 1" style="endArrow=none;html=1;rounded=0;fontSize=12;startSize=14;endSize=14;sourcePerimeterSpacing=8;targetPerimeterSpacing=8;horizontal=0;edgeStyle=orthogonalEdgeStyle;" edge="1" parent="1">
          <mxGeometry width="50" height="50" relative="1" as="geometry">
            <mxPoint x="1400" y="479" as="sourcePoint" />
            <mxPoint x="1400" y="319" as="targetPoint" />
          </mxGeometry>
        </mxCell>
        <mxCell id="NEAT874ut31OaDpRPA5h-113" value="INPUT 2" style="endArrow=none;html=1;rounded=0;fontSize=12;startSize=14;endSize=14;sourcePerimeterSpacing=8;targetPerimeterSpacing=8;horizontal=0;edgeStyle=orthogonalEdgeStyle;" edge="1" parent="1">
          <mxGeometry width="50" height="50" relative="1" as="geometry">
            <mxPoint x="1420" y="479" as="sourcePoint" />
            <mxPoint x="1420" y="319" as="targetPoint" />
          </mxGeometry>
        </mxCell>
        <mxCell id="NEAT874ut31OaDpRPA5h-114" value="INPUT 3" style="endArrow=none;html=1;rounded=0;fontSize=12;startSize=14;endSize=14;sourcePerimeterSpacing=8;targetPerimeterSpacing=8;horizontal=0;edgeStyle=orthogonalEdgeStyle;" edge="1" parent="1">
          <mxGeometry width="50" height="50" relative="1" as="geometry">
            <mxPoint x="1440" y="479" as="sourcePoint" />
            <mxPoint x="1440" y="319" as="targetPoint" />
          </mxGeometry>
        </mxCell>
        <mxCell id="NEAT874ut31OaDpRPA5h-115" value="INPUT 4" style="endArrow=none;html=1;rounded=0;fontSize=12;startSize=14;endSize=14;sourcePerimeterSpacing=8;targetPerimeterSpacing=8;horizontal=0;edgeStyle=orthogonalEdgeStyle;" edge="1" parent="1">
          <mxGeometry width="50" height="50" relative="1" as="geometry">
            <mxPoint x="1460" y="479" as="sourcePoint" />
            <mxPoint x="1460" y="319" as="targetPoint" />
          </mxGeometry>
        </mxCell>
        <mxCell id="NEAT874ut31OaDpRPA5h-116" value="INPUT 5" style="endArrow=none;html=1;rounded=0;fontSize=12;startSize=14;endSize=14;sourcePerimeterSpacing=8;targetPerimeterSpacing=8;horizontal=0;edgeStyle=orthogonalEdgeStyle;" edge="1" parent="1">
          <mxGeometry width="50" height="50" relative="1" as="geometry">
            <mxPoint x="1480" y="479" as="sourcePoint" />
            <mxPoint x="1480" y="319" as="targetPoint" />
          </mxGeometry>
        </mxCell>
        <mxCell id="NEAT874ut31OaDpRPA5h-117" value="INPUT 6" style="endArrow=none;html=1;rounded=0;fontSize=12;startSize=14;endSize=14;sourcePerimeterSpacing=8;targetPerimeterSpacing=8;horizontal=0;edgeStyle=orthogonalEdgeStyle;" edge="1" parent="1">
          <mxGeometry width="50" height="50" relative="1" as="geometry">
            <mxPoint x="1500" y="479" as="sourcePoint" />
            <mxPoint x="1500" y="319" as="targetPoint" />
          </mxGeometry>
        </mxCell>
        <mxCell id="NEAT874ut31OaDpRPA5h-118" value="QLAB VIDEO" style="endArrow=none;html=1;rounded=0;fontSize=12;startSize=14;endSize=14;sourcePerimeterSpacing=8;targetPerimeterSpacing=8;horizontal=0;edgeStyle=orthogonalEdgeStyle;" edge="1" parent="1">
          <mxGeometry width="50" height="50" relative="1" as="geometry">
            <mxPoint x="1520" y="479" as="sourcePoint" />
            <mxPoint x="1520" y="319" as="targetPoint" />
          </mxGeometry>
        </mxCell>
        <mxCell id="NEAT874ut31OaDpRPA5h-119" value="GREEN SONGS" style="endArrow=none;html=1;rounded=0;fontSize=12;startSize=14;endSize=14;sourcePerimeterSpacing=8;targetPerimeterSpacing=8;horizontal=0;edgeStyle=orthogonalEdgeStyle;" edge="1" parent="1">
          <mxGeometry width="50" height="50" relative="1" as="geometry">
            <mxPoint x="1359" y="719" as="sourcePoint" />
            <mxPoint x="1359" y="319" as="targetPoint" />
          </mxGeometry>
        </mxCell>
        <mxCell id="NEAT874ut31OaDpRPA5h-120" value="PROGRAM" style="endArrow=none;html=1;rounded=0;fontSize=12;startSize=14;endSize=14;sourcePerimeterSpacing=8;targetPerimeterSpacing=8;horizontal=0;edgeStyle=orthogonalEdgeStyle;" edge="1" parent="1">
          <mxGeometry width="50" height="50" relative="1" as="geometry">
            <mxPoint x="1640" y="479" as="sourcePoint" />
            <mxPoint x="1640" y="319" as="targetPoint" />
          </mxGeometry>
        </mxCell>
        <mxCell id="NEAT874ut31OaDpRPA5h-121" value="STAGE SONGS" style="endArrow=none;html=1;rounded=0;fontSize=12;startSize=14;endSize=14;sourcePerimeterSpacing=8;targetPerimeterSpacing=8;labelPosition=center;verticalLabelPosition=middle;align=center;verticalAlign=middle;horizontal=0;edgeStyle=orthogonalEdgeStyle;" edge="1" parent="1">
          <mxGeometry width="50" height="50" relative="1" as="geometry">
            <mxPoint x="1580" y="479" as="sourcePoint" />
            <mxPoint x="1580" y="319" as="targetPoint" />
          </mxGeometry>
        </mxCell>
        <mxCell id="NEAT874ut31OaDpRPA5h-122" value="GREEN SONGS" style="endArrow=none;html=1;rounded=0;fontSize=12;startSize=14;endSize=14;sourcePerimeterSpacing=8;targetPerimeterSpacing=8;horizontal=0;edgeStyle=orthogonalEdgeStyle;" edge="1" parent="1">
          <mxGeometry width="50" height="50" relative="1" as="geometry">
            <mxPoint x="1599.9999999999995" y="479" as="sourcePoint" />
            <mxPoint x="1599.9999999999995" y="319" as="targetPoint" />
          </mxGeometry>
        </mxCell>
        <mxCell id="NEAT874ut31OaDpRPA5h-124" value="Mac Mini&lt;br&gt;GCGTECH1" style="rounded=0;whiteSpace=wrap;html=1;hachureGap=4;fontSize=10;strokeColor=#FF8000;connectable=0;" vertex="1" parent="1">
          <mxGeometry x="1760" y="1220" width="90" height="80" as="geometry" />
        </mxCell>
        <mxCell id="NEAT874ut31OaDpRPA5h-125" value="Mac Mini &lt;br&gt;GCGTECH2" style="rounded=0;whiteSpace=wrap;html=1;hachureGap=4;fontSize=10;strokeColor=#FF8000;connectable=0;" vertex="1" parent="1">
          <mxGeometry x="1860" y="1480" width="140" height="80" as="geometry" />
        </mxCell>
        <mxCell id="NEAT874ut31OaDpRPA5h-126" value="STAGE SONGS" style="endArrow=none;html=1;rounded=0;fontSize=12;startSize=14;endSize=14;sourcePerimeterSpacing=8;targetPerimeterSpacing=8;horizontal=0;edgeStyle=orthogonalEdgeStyle;" edge="1" parent="1">
          <mxGeometry width="50" height="50" relative="1" as="geometry">
            <mxPoint x="1930" y="959" as="sourcePoint" />
            <mxPoint x="1930" y="799" as="targetPoint" />
          </mxGeometry>
        </mxCell>
        <mxCell id="NEAT874ut31OaDpRPA5h-127" value="GREEN SONGS" style="endArrow=none;html=1;rounded=0;fontSize=12;startSize=14;endSize=14;sourcePerimeterSpacing=8;targetPerimeterSpacing=8;horizontal=0;edgeStyle=orthogonalEdgeStyle;" edge="1" parent="1">
          <mxGeometry width="50" height="50" relative="1" as="geometry">
            <mxPoint x="1980" y="959" as="sourcePoint" />
            <mxPoint x="1979.9999999999995" y="799" as="targetPoint" />
          </mxGeometry>
        </mxCell>
        <mxCell id="NEAT874ut31OaDpRPA5h-128" value="QLAB VIDEO" style="endArrow=none;html=1;rounded=0;fontSize=12;startSize=14;endSize=14;sourcePerimeterSpacing=8;targetPerimeterSpacing=8;horizontal=0;edgeStyle=orthogonalEdgeStyle;" edge="1" parent="1">
          <mxGeometry width="50" height="50" relative="1" as="geometry">
            <mxPoint x="1780" y="959" as="sourcePoint" />
            <mxPoint x="1779.9999999999995" y="799" as="targetPoint" />
          </mxGeometry>
        </mxCell>
        <mxCell id="NEAT874ut31OaDpRPA5h-129" value="MacBook" style="rounded=0;whiteSpace=wrap;html=1;hachureGap=4;fontSize=10;strokeColor=#FF8000;connectable=0;horizontal=0;" vertex="1" parent="1">
          <mxGeometry x="1495" y="1459" width="40" height="80" as="geometry" />
        </mxCell>
        <mxCell id="NEAT874ut31OaDpRPA5h-130" value="STAGE CLOCK" style="endArrow=none;html=1;rounded=0;fontSize=12;startSize=14;endSize=14;sourcePerimeterSpacing=8;targetPerimeterSpacing=8;horizontal=0;edgeStyle=orthogonalEdgeStyle;" edge="1" parent="1">
          <mxGeometry width="50" height="50" relative="1" as="geometry">
            <mxPoint x="1514.5" y="1198" as="sourcePoint" />
            <mxPoint x="1514.5" y="1038" as="targetPoint" />
          </mxGeometry>
        </mxCell>
        <mxCell id="NEAT874ut31OaDpRPA5h-131" value="PROGRAM" style="endArrow=none;html=1;rounded=0;fontSize=12;startSize=14;endSize=14;sourcePerimeterSpacing=8;targetPerimeterSpacing=8;horizontal=0;edgeStyle=orthogonalEdgeStyle;" edge="1" parent="1">
          <mxGeometry width="50" height="50" relative="1" as="geometry">
            <mxPoint x="1940" y="719" as="sourcePoint" />
            <mxPoint x="1940" y="559" as="targetPoint" />
          </mxGeometry>
        </mxCell>
        <mxCell id="NEAT874ut31OaDpRPA5h-133" value="PROGRAM" style="endArrow=baseDash;html=1;rounded=0;fontSize=12;startSize=14;endSize=14;sourcePerimeterSpacing=8;targetPerimeterSpacing=8;horizontal=0;endFill=0;edgeStyle=orthogonalEdgeStyle;" edge="1" parent="1">
          <mxGeometry width="50" height="50" relative="1" as="geometry">
            <mxPoint x="1379.5" y="239" as="sourcePoint" />
            <mxPoint x="1379.5" y="79" as="targetPoint" />
          </mxGeometry>
        </mxCell>
        <mxCell id="NEAT874ut31OaDpRPA5h-134" value="ATEM AUX" style="endArrow=baseDash;html=1;rounded=0;fontSize=12;startSize=14;endSize=14;sourcePerimeterSpacing=8;targetPerimeterSpacing=8;horizontal=0;endFill=0;edgeStyle=orthogonalEdgeStyle;" edge="1" parent="1">
          <mxGeometry width="50" height="50" relative="1" as="geometry">
            <mxPoint x="1359.5" y="239" as="sourcePoint" />
            <mxPoint x="1359.5" y="79" as="targetPoint" />
          </mxGeometry>
        </mxCell>
        <mxCell id="NEAT874ut31OaDpRPA5h-136" value="STAGE SONGS" style="endArrow=none;html=1;rounded=0;fontSize=12;startSize=14;endSize=14;sourcePerimeterSpacing=8;targetPerimeterSpacing=8;labelPosition=center;verticalLabelPosition=middle;align=center;verticalAlign=middle;horizontal=0;edgeStyle=orthogonalEdgeStyle;" edge="1" parent="1">
          <mxGeometry width="50" height="50" relative="1" as="geometry">
            <mxPoint x="1579.9999999999995" y="239" as="sourcePoint" />
            <mxPoint x="1580" y="79" as="targetPoint" />
          </mxGeometry>
        </mxCell>
        <mxCell id="NEAT874ut31OaDpRPA5h-138" value="Mini converter&lt;br&gt;SDI Distribution" style="rounded=0;whiteSpace=wrap;html=1;hachureGap=4;fontSize=10;strokeColor=#FF8000;connectable=0;horizontal=1;" vertex="1" parent="1">
          <mxGeometry x="1970" y="479" width="290" height="80" as="geometry" />
        </mxCell>
        <mxCell id="NEAT874ut31OaDpRPA5h-139" value="PROGRAM" style="endArrow=none;html=1;rounded=0;fontSize=12;startSize=14;endSize=14;sourcePerimeterSpacing=8;targetPerimeterSpacing=8;horizontal=0;edgeStyle=orthogonalEdgeStyle;" edge="1" parent="1">
          <mxGeometry width="50" height="50" relative="1" as="geometry">
            <mxPoint x="2109.66" y="719" as="sourcePoint" />
            <mxPoint x="2109.66" y="559" as="targetPoint" />
          </mxGeometry>
        </mxCell>
        <mxCell id="NEAT874ut31OaDpRPA5h-140" value="Webpresenter HD" style="rounded=0;whiteSpace=wrap;html=1;hachureGap=4;fontSize=10;strokeColor=#FF8000;connectable=0;horizontal=0;" vertex="1" parent="1">
          <mxGeometry x="1920" y="479" width="40" height="80" as="geometry" />
        </mxCell>
        <mxCell id="NEAT874ut31OaDpRPA5h-141" value="FULLSCREEN SONGS" style="endArrow=none;html=1;rounded=0;fontSize=12;startSize=14;endSize=14;sourcePerimeterSpacing=8;targetPerimeterSpacing=8;horizontal=0;edgeStyle=orthogonalEdgeStyle;" edge="1" parent="1">
          <mxGeometry width="50" height="50" relative="1" as="geometry">
            <mxPoint x="1889.9999999999995" y="719" as="sourcePoint" />
            <mxPoint x="1890" y="559" as="targetPoint" />
          </mxGeometry>
        </mxCell>
        <mxCell id="NEAT874ut31OaDpRPA5h-142" value="20&lt;br&gt;16" style="text;html=1;align=right;verticalAlign=middle;resizable=0;points=[];autosize=1;strokeColor=none;fillColor=none;hachureGap=4;fontSize=10;" vertex="1" parent="1">
          <mxGeometry x="1345" y="744" width="30" height="30" as="geometry" />
        </mxCell>
        <mxCell id="NEAT874ut31OaDpRPA5h-143" value="Display 2&lt;br&gt;video regisseur" style="rounded=0;whiteSpace=wrap;html=1;hachureGap=4;fontSize=10;strokeColor=#FF8000;connectable=0;horizontal=0;" vertex="1" parent="1">
          <mxGeometry x="1770" y="-1" width="40" height="80" as="geometry" />
        </mxCell>
        <mxCell id="NEAT874ut31OaDpRPA5h-144" value="MULTI VIEW - ALL" style="endArrow=none;html=1;rounded=0;fontSize=12;startSize=14;endSize=14;sourcePerimeterSpacing=8;targetPerimeterSpacing=8;horizontal=0;edgeStyle=orthogonalEdgeStyle;" edge="1" parent="1">
          <mxGeometry width="50" height="50" relative="1" as="geometry">
            <mxPoint x="1790" y="479" as="sourcePoint" />
            <mxPoint x="1790" y="319" as="targetPoint" />
          </mxGeometry>
        </mxCell>
        <mxCell id="NEAT874ut31OaDpRPA5h-146" value="ATEM AUX" style="endArrow=none;html=1;rounded=0;fontSize=12;startSize=14;endSize=14;sourcePerimeterSpacing=8;targetPerimeterSpacing=8;horizontal=0;endFill=0;edgeStyle=orthogonalEdgeStyle;startArrow=baseDash;startFill=0;" edge="1" parent="1">
          <mxGeometry width="50" height="50" relative="1" as="geometry">
            <mxPoint x="2090" y="959" as="sourcePoint" />
            <mxPoint x="2090" y="799" as="targetPoint" />
          </mxGeometry>
        </mxCell>
        <mxCell id="NEAT874ut31OaDpRPA5h-147" value="PROGRAM" style="endArrow=none;html=1;rounded=0;fontSize=12;startSize=14;endSize=14;sourcePerimeterSpacing=8;targetPerimeterSpacing=8;horizontal=0;endFill=0;edgeStyle=orthogonalEdgeStyle;startArrow=baseDash;startFill=0;" edge="1" parent="1">
          <mxGeometry width="50" height="50" relative="1" as="geometry">
            <mxPoint x="2110" y="959" as="sourcePoint" />
            <mxPoint x="2110" y="799" as="targetPoint" />
          </mxGeometry>
        </mxCell>
        <mxCell id="NEAT874ut31OaDpRPA5h-150" value="INPUT 1" style="endArrow=none;html=1;rounded=0;fontSize=12;startSize=14;endSize=14;sourcePerimeterSpacing=8;targetPerimeterSpacing=8;horizontal=0;edgeStyle=orthogonalEdgeStyle;endFill=0;startArrow=none;startFill=0;" edge="1" parent="1">
          <mxGeometry width="50" height="50" relative="1" as="geometry">
            <mxPoint x="1360" y="959" as="sourcePoint" />
            <mxPoint x="1360" y="799" as="targetPoint" />
          </mxGeometry>
        </mxCell>
        <mxCell id="NEAT874ut31OaDpRPA5h-151" value="INPUT 2" style="endArrow=none;html=1;rounded=0;fontSize=12;startSize=14;endSize=14;sourcePerimeterSpacing=8;targetPerimeterSpacing=8;horizontal=0;edgeStyle=orthogonalEdgeStyle;endFill=0;startArrow=none;startFill=0;" edge="1" parent="1">
          <mxGeometry width="50" height="50" relative="1" as="geometry">
            <mxPoint x="1380" y="959" as="sourcePoint" />
            <mxPoint x="1380" y="799" as="targetPoint" />
          </mxGeometry>
        </mxCell>
        <mxCell id="NEAT874ut31OaDpRPA5h-152" value="INPUT 3" style="endArrow=none;html=1;rounded=0;fontSize=12;startSize=14;endSize=14;sourcePerimeterSpacing=8;targetPerimeterSpacing=8;horizontal=0;edgeStyle=orthogonalEdgeStyle;endFill=0;startArrow=none;startFill=0;" edge="1" parent="1">
          <mxGeometry width="50" height="50" relative="1" as="geometry">
            <mxPoint x="1400" y="959" as="sourcePoint" />
            <mxPoint x="1400" y="799" as="targetPoint" />
          </mxGeometry>
        </mxCell>
        <mxCell id="NEAT874ut31OaDpRPA5h-153" value="INPUT 4" style="endArrow=none;html=1;rounded=0;fontSize=12;startSize=14;endSize=14;sourcePerimeterSpacing=8;targetPerimeterSpacing=8;horizontal=0;edgeStyle=orthogonalEdgeStyle;endFill=0;startArrow=none;startFill=0;" edge="1" parent="1">
          <mxGeometry width="50" height="50" relative="1" as="geometry">
            <mxPoint x="1420" y="959" as="sourcePoint" />
            <mxPoint x="1420" y="799" as="targetPoint" />
          </mxGeometry>
        </mxCell>
        <mxCell id="NEAT874ut31OaDpRPA5h-154" value="INPUT 5" style="endArrow=none;html=1;rounded=0;fontSize=12;startSize=14;endSize=14;sourcePerimeterSpacing=8;targetPerimeterSpacing=8;horizontal=0;edgeStyle=orthogonalEdgeStyle;endFill=0;startArrow=none;startFill=0;" edge="1" parent="1">
          <mxGeometry width="50" height="50" relative="1" as="geometry">
            <mxPoint x="1440" y="959" as="sourcePoint" />
            <mxPoint x="1439.9999999999995" y="799" as="targetPoint" />
          </mxGeometry>
        </mxCell>
        <mxCell id="NEAT874ut31OaDpRPA5h-155" value="INPUT 6" style="endArrow=none;html=1;rounded=0;fontSize=12;startSize=14;endSize=14;sourcePerimeterSpacing=8;targetPerimeterSpacing=8;horizontal=0;edgeStyle=orthogonalEdgeStyle;endFill=0;startArrow=none;startFill=0;" edge="1" parent="1">
          <mxGeometry width="50" height="50" relative="1" as="geometry">
            <mxPoint x="1460" y="959" as="sourcePoint" />
            <mxPoint x="1460" y="799" as="targetPoint" />
          </mxGeometry>
        </mxCell>
        <mxCell id="NEAT874ut31OaDpRPA5h-156" value="OUTPUTS&lt;br&gt;INPUTS" style="text;html=1;align=left;verticalAlign=middle;resizable=0;points=[];autosize=1;strokeColor=none;fillColor=none;hachureGap=4;fontSize=10;" vertex="1" parent="1">
          <mxGeometry x="1375" y="744" width="60" height="30" as="geometry" />
        </mxCell>
        <mxCell id="NEAT874ut31OaDpRPA5h-157" value="WEBPRESENTER" style="endArrow=baseDash;html=1;rounded=0;fontSize=12;startSize=14;endSize=14;sourcePerimeterSpacing=8;targetPerimeterSpacing=8;horizontal=0;edgeStyle=orthogonalEdgeStyle;endFill=0;" edge="1" parent="1">
          <mxGeometry width="50" height="50" relative="1" as="geometry">
            <mxPoint x="1940" y="479" as="sourcePoint" />
            <mxPoint x="1940" y="319" as="targetPoint" />
          </mxGeometry>
        </mxCell>
        <mxCell id="NEAT874ut31OaDpRPA5h-158" value="WEBPRESENTER" style="endArrow=none;html=1;rounded=0;fontSize=12;startSize=14;endSize=14;sourcePerimeterSpacing=8;targetPerimeterSpacing=8;horizontal=0;edgeStyle=orthogonalEdgeStyle;endFill=0;startArrow=baseDash;startFill=0;" edge="1" parent="1">
          <mxGeometry width="50" height="50" relative="1" as="geometry">
            <mxPoint x="2070" y="959" as="sourcePoint" />
            <mxPoint x="2070" y="799" as="targetPoint" />
          </mxGeometry>
        </mxCell>
        <mxCell id="NEAT874ut31OaDpRPA5h-159" value="MULTI VIEW - SONGS" style="endArrow=none;html=1;rounded=0;fontSize=12;startSize=14;endSize=14;sourcePerimeterSpacing=8;targetPerimeterSpacing=8;horizontal=0;edgeStyle=orthogonalEdgeStyle;endFill=0;" edge="1" parent="1">
          <mxGeometry width="50" height="50" relative="1" as="geometry">
            <mxPoint x="1639.9999999999995" y="239" as="sourcePoint" />
            <mxPoint x="1640" y="79" as="targetPoint" />
          </mxGeometry>
        </mxCell>
        <mxCell id="NEAT874ut31OaDpRPA5h-161" value="Stage display 2" style="rounded=0;whiteSpace=wrap;html=1;hachureGap=4;fontSize=10;strokeColor=#FF8000;connectable=0;horizontal=0;" vertex="1" parent="1">
          <mxGeometry x="1670" y="-1" width="40" height="80" as="geometry" />
        </mxCell>
        <mxCell id="NEAT874ut31OaDpRPA5h-162" value="Delay display 1" style="rounded=0;whiteSpace=wrap;html=1;hachureGap=4;fontSize=10;strokeColor=#FF8000;connectable=0;horizontal=0;" vertex="1" parent="1">
          <mxGeometry x="1970" y="-1" width="40" height="80" as="geometry" />
        </mxCell>
        <mxCell id="NEAT874ut31OaDpRPA5h-165" value="Delay display 2" style="rounded=0;whiteSpace=wrap;html=1;hachureGap=4;fontSize=10;strokeColor=#FF8000;connectable=0;horizontal=0;" vertex="1" parent="1">
          <mxGeometry x="2020" y="-1" width="40" height="80" as="geometry" />
        </mxCell>
        <mxCell id="NEAT874ut31OaDpRPA5h-167" value="Delay display 6" style="rounded=0;whiteSpace=wrap;html=1;hachureGap=4;fontSize=10;strokeColor=#FF8000;connectable=0;horizontal=0;" vertex="1" parent="1">
          <mxGeometry x="2220" y="-1" width="40" height="80" as="geometry" />
        </mxCell>
        <mxCell id="NEAT874ut31OaDpRPA5h-169" value="Delay display 3" style="rounded=0;whiteSpace=wrap;html=1;hachureGap=4;fontSize=10;strokeColor=#FF8000;connectable=0;horizontal=0;" vertex="1" parent="1">
          <mxGeometry x="2070" y="-1" width="40" height="80" as="geometry" />
        </mxCell>
        <mxCell id="NEAT874ut31OaDpRPA5h-171" value="Delay display 4" style="rounded=0;whiteSpace=wrap;html=1;hachureGap=4;fontSize=10;strokeColor=#FF8000;connectable=0;horizontal=0;" vertex="1" parent="1">
          <mxGeometry x="2121" y="-1" width="40" height="80" as="geometry" />
        </mxCell>
        <mxCell id="NEAT874ut31OaDpRPA5h-172" value="PROGRAM" style="endArrow=none;html=1;rounded=0;fontSize=12;startSize=14;endSize=14;sourcePerimeterSpacing=8;targetPerimeterSpacing=8;labelPosition=center;verticalLabelPosition=middle;align=center;verticalAlign=middle;horizontal=0;edgeStyle=orthogonalEdgeStyle;" edge="1" parent="1">
          <mxGeometry width="50" height="50" relative="1" as="geometry">
            <mxPoint x="2240" y="479" as="sourcePoint" />
            <mxPoint x="2240" y="319" as="targetPoint" />
          </mxGeometry>
        </mxCell>
        <mxCell id="NEAT874ut31OaDpRPA5h-173" value="Delay display 5" style="rounded=0;whiteSpace=wrap;html=1;hachureGap=4;fontSize=10;strokeColor=#FF8000;connectable=0;horizontal=0;" vertex="1" parent="1">
          <mxGeometry x="2170" y="-1" width="40" height="80" as="geometry" />
        </mxCell>
        <mxCell id="NEAT874ut31OaDpRPA5h-175" value="MULTI VIEW - CAMERA" style="endArrow=none;html=1;rounded=0;fontSize=12;startSize=14;endSize=14;sourcePerimeterSpacing=8;targetPerimeterSpacing=8;horizontal=0;endFill=0;edgeStyle=orthogonalEdgeStyle;" edge="1" parent="1">
          <mxGeometry width="50" height="50" relative="1" as="geometry">
            <mxPoint x="1520" y="239" as="sourcePoint" />
            <mxPoint x="1520" y="79" as="targetPoint" />
          </mxGeometry>
        </mxCell>
        <mxCell id="NEAT874ut31OaDpRPA5h-176" value="Display 1&lt;br&gt;video regisseur" style="rounded=0;whiteSpace=wrap;html=1;hachureGap=4;fontSize=10;strokeColor=#FF8000;connectable=0;horizontal=0;" vertex="1" parent="1">
          <mxGeometry x="1500" y="-241" width="40" height="80" as="geometry" />
        </mxCell>
        <mxCell id="NEAT874ut31OaDpRPA5h-183" value="COMPUTERBEELD" style="endArrow=none;html=1;rounded=0;fontSize=12;startSize=14;endSize=14;sourcePerimeterSpacing=8;targetPerimeterSpacing=8;horizontal=0;endFill=0;edgeStyle=orthogonalEdgeStyle;" edge="1" parent="1">
          <mxGeometry width="50" height="50" relative="1" as="geometry">
            <mxPoint x="1880.0000000000005" y="1479" as="sourcePoint" />
            <mxPoint x="1880.0000000000005" y="1299" as="targetPoint" />
          </mxGeometry>
        </mxCell>
        <mxCell id="NEAT874ut31OaDpRPA5h-184" value="Display 1&lt;br&gt;liedteksten" style="rounded=0;whiteSpace=wrap;html=1;hachureGap=4;fontSize=10;strokeColor=#FF8000;connectable=0;horizontal=0;" vertex="1" parent="1">
          <mxGeometry x="1860" y="1219" width="40" height="80" as="geometry" />
        </mxCell>
        <mxCell id="NEAT874ut31OaDpRPA5h-185" value="Display 3&lt;br&gt;video regisseur" style="rounded=0;whiteSpace=wrap;html=1;hachureGap=4;fontSize=10;strokeColor=#FF8000;connectable=0;horizontal=0;" vertex="1" parent="1">
          <mxGeometry x="1810" y="959" width="40" height="80" as="geometry" />
        </mxCell>
        <mxCell id="NEAT874ut31OaDpRPA5h-186" value="COMPUTERBEELD" style="endArrow=none;html=1;rounded=0;fontSize=12;startSize=14;endSize=14;sourcePerimeterSpacing=8;targetPerimeterSpacing=8;horizontal=0;endFill=0;edgeStyle=orthogonalEdgeStyle;" edge="1" parent="1">
          <mxGeometry width="50" height="50" relative="1" as="geometry">
            <mxPoint x="1830.0000000000005" y="1219" as="sourcePoint" />
            <mxPoint x="1830.0000000000005" y="1039" as="targetPoint" />
          </mxGeometry>
        </mxCell>
        <mxCell id="NEAT874ut31OaDpRPA5h-190" value="Display 2&lt;br&gt;video wall" style="rounded=0;whiteSpace=wrap;html=1;hachureGap=4;fontSize=10;strokeColor=#FF8000;connectable=0;horizontal=0;" vertex="1" parent="1">
          <mxGeometry x="1720" y="-1" width="40" height="80" as="geometry" />
        </mxCell>
        <mxCell id="NEAT874ut31OaDpRPA5h-191" value="Overview&lt;br&gt;Camera 1" style="rounded=0;whiteSpace=wrap;html=1;hachureGap=4;fontSize=10;strokeColor=#FF8000;connectable=0;horizontal=0;" vertex="1" parent="1">
          <mxGeometry x="1340" y="1198" width="40" height="80" as="geometry" />
        </mxCell>
        <mxCell id="NEAT874ut31OaDpRPA5h-192" value="Camera 3" style="rounded=0;whiteSpace=wrap;html=1;hachureGap=4;fontSize=10;strokeColor=#FF8000;connectable=0;horizontal=0;" vertex="1" parent="1">
          <mxGeometry x="1440" y="1198" width="40" height="80" as="geometry" />
        </mxCell>
        <mxCell id="NEAT874ut31OaDpRPA5h-193" value="Camera 2" style="rounded=0;whiteSpace=wrap;html=1;hachureGap=4;fontSize=10;strokeColor=#FF8000;connectable=0;horizontal=0;" vertex="1" parent="1">
          <mxGeometry x="1390" y="1198" width="40" height="80" as="geometry" />
        </mxCell>
        <mxCell id="NEAT874ut31OaDpRPA5h-195" value="MultiView 16" style="rounded=0;whiteSpace=wrap;html=1;hachureGap=4;fontSize=10;strokeColor=#FF8000;connectable=0;" vertex="1" parent="1">
          <mxGeometry x="1380" y="479" width="480" height="80" as="geometry" />
        </mxCell>
        <mxCell id="NEAT874ut31OaDpRPA5h-202" value="QLAB VIDEO" style="endArrow=none;html=1;rounded=0;fontSize=12;startSize=14;endSize=14;sourcePerimeterSpacing=8;targetPerimeterSpacing=8;horizontal=0;edgeStyle=orthogonalEdgeStyle;" edge="1" parent="1">
          <mxGeometry width="50" height="50" relative="1" as="geometry">
            <mxPoint x="1520" y="719" as="sourcePoint" />
            <mxPoint x="1520" y="559" as="targetPoint" />
          </mxGeometry>
        </mxCell>
        <mxCell id="NEAT874ut31OaDpRPA5h-203" value="GREEN SONGS" style="endArrow=none;html=1;rounded=0;fontSize=12;startSize=14;endSize=14;sourcePerimeterSpacing=8;targetPerimeterSpacing=8;horizontal=0;edgeStyle=orthogonalEdgeStyle;" edge="1" parent="1">
          <mxGeometry width="50" height="50" relative="1" as="geometry">
            <mxPoint x="1600" y="719" as="sourcePoint" />
            <mxPoint x="1600" y="559" as="targetPoint" />
          </mxGeometry>
        </mxCell>
        <mxCell id="NEAT874ut31OaDpRPA5h-204" value="STAGE SONGS" style="endArrow=none;html=1;rounded=0;fontSize=12;startSize=14;endSize=14;sourcePerimeterSpacing=8;targetPerimeterSpacing=8;horizontal=0;edgeStyle=orthogonalEdgeStyle;" edge="1" parent="1">
          <mxGeometry width="50" height="50" relative="1" as="geometry">
            <mxPoint x="1580" y="719" as="sourcePoint" />
            <mxPoint x="1580" y="559" as="targetPoint" />
          </mxGeometry>
        </mxCell>
        <mxCell id="NEAT874ut31OaDpRPA5h-205" value="STAGE CLOCK" style="endArrow=none;html=1;rounded=0;fontSize=12;startSize=14;endSize=14;sourcePerimeterSpacing=8;targetPerimeterSpacing=8;horizontal=0;edgeStyle=orthogonalEdgeStyle;" edge="1" parent="1">
          <mxGeometry width="50" height="50" relative="1" as="geometry">
            <mxPoint x="1680" y="719" as="sourcePoint" />
            <mxPoint x="1680" y="559" as="targetPoint" />
          </mxGeometry>
        </mxCell>
        <mxCell id="NEAT874ut31OaDpRPA5h-207" value="WEBPRESENTER" style="endArrow=none;html=1;rounded=0;fontSize=12;startSize=14;endSize=14;sourcePerimeterSpacing=8;targetPerimeterSpacing=8;horizontal=0;edgeStyle=orthogonalEdgeStyle;" edge="1" parent="1">
          <mxGeometry width="50" height="50" relative="1" as="geometry">
            <mxPoint x="1700" y="719" as="sourcePoint" />
            <mxPoint x="1700" y="559" as="targetPoint" />
          </mxGeometry>
        </mxCell>
        <mxCell id="NEAT874ut31OaDpRPA5h-211" value="INPUT 1" style="endArrow=none;html=1;rounded=0;fontSize=12;startSize=14;endSize=14;sourcePerimeterSpacing=8;targetPerimeterSpacing=8;horizontal=0;edgeStyle=orthogonalEdgeStyle;" edge="1" parent="1">
          <mxGeometry width="50" height="50" relative="1" as="geometry">
            <mxPoint x="1400" y="719" as="sourcePoint" />
            <mxPoint x="1400" y="559" as="targetPoint" />
          </mxGeometry>
        </mxCell>
        <mxCell id="NEAT874ut31OaDpRPA5h-212" value="INPUT 2" style="endArrow=none;html=1;rounded=0;fontSize=12;startSize=14;endSize=14;sourcePerimeterSpacing=8;targetPerimeterSpacing=8;horizontal=0;edgeStyle=orthogonalEdgeStyle;" edge="1" parent="1">
          <mxGeometry width="50" height="50" relative="1" as="geometry">
            <mxPoint x="1420" y="719" as="sourcePoint" />
            <mxPoint x="1420" y="559" as="targetPoint" />
          </mxGeometry>
        </mxCell>
        <mxCell id="NEAT874ut31OaDpRPA5h-213" value="INPUT 3" style="endArrow=none;html=1;rounded=0;fontSize=12;startSize=14;endSize=14;sourcePerimeterSpacing=8;targetPerimeterSpacing=8;horizontal=0;edgeStyle=orthogonalEdgeStyle;" edge="1" parent="1">
          <mxGeometry width="50" height="50" relative="1" as="geometry">
            <mxPoint x="1440" y="719" as="sourcePoint" />
            <mxPoint x="1440" y="559" as="targetPoint" />
          </mxGeometry>
        </mxCell>
        <mxCell id="NEAT874ut31OaDpRPA5h-214" value="INPUT 4" style="endArrow=none;html=1;rounded=0;fontSize=12;startSize=14;endSize=14;sourcePerimeterSpacing=8;targetPerimeterSpacing=8;horizontal=0;edgeStyle=orthogonalEdgeStyle;" edge="1" parent="1">
          <mxGeometry width="50" height="50" relative="1" as="geometry">
            <mxPoint x="1460" y="719" as="sourcePoint" />
            <mxPoint x="1460" y="559" as="targetPoint" />
          </mxGeometry>
        </mxCell>
        <mxCell id="NEAT874ut31OaDpRPA5h-215" value="INPUT 5" style="endArrow=none;html=1;rounded=0;fontSize=12;startSize=14;endSize=14;sourcePerimeterSpacing=8;targetPerimeterSpacing=8;horizontal=0;edgeStyle=orthogonalEdgeStyle;" edge="1" parent="1">
          <mxGeometry width="50" height="50" relative="1" as="geometry">
            <mxPoint x="1480" y="719" as="sourcePoint" />
            <mxPoint x="1480" y="559" as="targetPoint" />
          </mxGeometry>
        </mxCell>
        <mxCell id="NEAT874ut31OaDpRPA5h-216" value="INPUT 6" style="endArrow=none;html=1;rounded=0;fontSize=12;startSize=14;endSize=14;sourcePerimeterSpacing=8;targetPerimeterSpacing=8;horizontal=0;edgeStyle=orthogonalEdgeStyle;" edge="1" parent="1">
          <mxGeometry width="50" height="50" relative="1" as="geometry">
            <mxPoint x="1500" y="719" as="sourcePoint" />
            <mxPoint x="1500" y="559" as="targetPoint" />
          </mxGeometry>
        </mxCell>
        <mxCell id="NEAT874ut31OaDpRPA5h-217" value="INPUT 8" style="endArrow=none;html=1;rounded=0;fontSize=12;startSize=14;endSize=14;sourcePerimeterSpacing=8;targetPerimeterSpacing=8;horizontal=0;edgeStyle=orthogonalEdgeStyle;" edge="1" parent="1">
          <mxGeometry width="50" height="50" relative="1" as="geometry">
            <mxPoint x="1560" y="719" as="sourcePoint" />
            <mxPoint x="1560" y="559" as="targetPoint" />
          </mxGeometry>
        </mxCell>
        <mxCell id="NEAT874ut31OaDpRPA5h-218" value="INPUT 7" style="endArrow=none;html=1;rounded=0;fontSize=12;startSize=14;endSize=14;sourcePerimeterSpacing=8;targetPerimeterSpacing=8;horizontal=0;edgeStyle=orthogonalEdgeStyle;" edge="1" parent="1">
          <mxGeometry width="50" height="50" relative="1" as="geometry">
            <mxPoint x="1540" y="719" as="sourcePoint" />
            <mxPoint x="1540" y="559" as="targetPoint" />
          </mxGeometry>
        </mxCell>
        <mxCell id="NEAT874ut31OaDpRPA5h-219" value="FULLSCREEN SONGS" style="endArrow=none;html=1;rounded=0;fontSize=12;startSize=14;endSize=14;sourcePerimeterSpacing=8;targetPerimeterSpacing=8;horizontal=0;edgeStyle=orthogonalEdgeStyle;" edge="1" parent="1">
          <mxGeometry width="50" height="50" relative="1" as="geometry">
            <mxPoint x="1620" y="719" as="sourcePoint" />
            <mxPoint x="1620" y="559" as="targetPoint" />
          </mxGeometry>
        </mxCell>
        <mxCell id="NEAT874ut31OaDpRPA5h-220" value="ATEM AUX" style="endArrow=none;html=1;rounded=0;fontSize=12;startSize=14;endSize=14;sourcePerimeterSpacing=8;targetPerimeterSpacing=8;horizontal=0;edgeStyle=orthogonalEdgeStyle;" edge="1" parent="1">
          <mxGeometry width="50" height="50" relative="1" as="geometry">
            <mxPoint x="1660" y="719" as="sourcePoint" />
            <mxPoint x="1660" y="559" as="targetPoint" />
          </mxGeometry>
        </mxCell>
        <mxCell id="NEAT874ut31OaDpRPA5h-221" value="PROGRAM" style="endArrow=none;html=1;rounded=0;fontSize=12;startSize=14;endSize=14;sourcePerimeterSpacing=8;targetPerimeterSpacing=8;horizontal=0;edgeStyle=orthogonalEdgeStyle;" edge="1" parent="1">
          <mxGeometry width="50" height="50" relative="1" as="geometry">
            <mxPoint x="1640" y="719" as="sourcePoint" />
            <mxPoint x="1640" y="559" as="targetPoint" />
          </mxGeometry>
        </mxCell>
        <mxCell id="NEAT874ut31OaDpRPA5h-223" value="INPUT 7" style="endArrow=none;html=1;rounded=0;fontSize=12;startSize=14;endSize=14;sourcePerimeterSpacing=8;targetPerimeterSpacing=8;horizontal=0;edgeStyle=orthogonalEdgeStyle;endFill=0;startArrow=none;startFill=0;" edge="1" parent="1">
          <mxGeometry width="50" height="50" relative="1" as="geometry">
            <mxPoint x="1480" y="959" as="sourcePoint" />
            <mxPoint x="1480" y="799" as="targetPoint" />
          </mxGeometry>
        </mxCell>
        <mxCell id="NEAT874ut31OaDpRPA5h-224" value="INPUT 8" style="endArrow=none;html=1;rounded=0;fontSize=12;startSize=14;endSize=14;sourcePerimeterSpacing=8;targetPerimeterSpacing=8;horizontal=0;edgeStyle=orthogonalEdgeStyle;endFill=0;startArrow=none;startFill=0;" edge="1" parent="1">
          <mxGeometry width="50" height="50" relative="1" as="geometry">
            <mxPoint x="1500" y="959" as="sourcePoint" />
            <mxPoint x="1500" y="799" as="targetPoint" />
          </mxGeometry>
        </mxCell>
        <mxCell id="NEAT874ut31OaDpRPA5h-227" value="FULLSCREEN SONGS" style="endArrow=none;html=1;rounded=0;fontSize=12;startSize=14;endSize=14;sourcePerimeterSpacing=8;targetPerimeterSpacing=8;horizontal=0;edgeStyle=orthogonalEdgeStyle;" edge="1" parent="1">
          <mxGeometry width="50" height="50" relative="1" as="geometry">
            <mxPoint x="2030" y="959" as="sourcePoint" />
            <mxPoint x="2029.9999999999995" y="799" as="targetPoint" />
          </mxGeometry>
        </mxCell>
        <mxCell id="NEAT874ut31OaDpRPA5h-229" value="STAGE CLOCK" style="endArrow=none;html=1;rounded=0;fontSize=12;startSize=14;endSize=14;sourcePerimeterSpacing=8;targetPerimeterSpacing=8;horizontal=0;edgeStyle=orthogonalEdgeStyle;" edge="1" parent="1">
          <mxGeometry width="50" height="50" relative="1" as="geometry">
            <mxPoint x="1690" y="479" as="sourcePoint" />
            <mxPoint x="1690" y="319" as="targetPoint" />
          </mxGeometry>
        </mxCell>
        <mxCell id="NEAT874ut31OaDpRPA5h-231" value="FULLSCREEN SONGS" style="endArrow=none;html=1;rounded=0;fontSize=12;startSize=14;endSize=14;sourcePerimeterSpacing=8;targetPerimeterSpacing=8;horizontal=0;edgeStyle=orthogonalEdgeStyle;" edge="1" parent="1">
          <mxGeometry width="50" height="50" relative="1" as="geometry">
            <mxPoint x="1620" y="479" as="sourcePoint" />
            <mxPoint x="1620" y="319" as="targetPoint" />
          </mxGeometry>
        </mxCell>
        <mxCell id="NEAT874ut31OaDpRPA5h-232" value="MULTI VIEW - ALL" style="endArrow=none;html=1;rounded=0;fontSize=12;startSize=14;endSize=14;sourcePerimeterSpacing=8;targetPerimeterSpacing=8;horizontal=0;edgeStyle=orthogonalEdgeStyle;" edge="1" parent="1">
          <mxGeometry width="50" height="50" relative="1" as="geometry">
            <mxPoint x="1740" y="479" as="sourcePoint" />
            <mxPoint x="1740" y="319" as="targetPoint" />
          </mxGeometry>
        </mxCell>
        <mxCell id="NEAT874ut31OaDpRPA5h-233" value="Display 1 &lt;br&gt;geluidsman" style="rounded=0;whiteSpace=wrap;html=1;hachureGap=4;fontSize=10;strokeColor=#FF8000;connectable=0;horizontal=0;" vertex="1" parent="1">
          <mxGeometry x="1820" y="-1" width="40" height="80" as="geometry" />
        </mxCell>
        <mxCell id="NEAT874ut31OaDpRPA5h-234" value="MULTI VIEW - ALL" style="endArrow=none;html=1;rounded=0;fontSize=12;startSize=14;endSize=14;sourcePerimeterSpacing=8;targetPerimeterSpacing=8;horizontal=0;edgeStyle=orthogonalEdgeStyle;" edge="1" parent="1">
          <mxGeometry width="50" height="50" relative="1" as="geometry">
            <mxPoint x="1840" y="479" as="sourcePoint" />
            <mxPoint x="1840" y="319" as="targetPoint" />
          </mxGeometry>
        </mxCell>
        <mxCell id="NEAT874ut31OaDpRPA5h-235" value="OUTPUTS&lt;br&gt;INPUTS&lt;br&gt;MULTI VIEWS" style="text;html=1;align=left;verticalAlign=middle;resizable=0;points=[];autosize=1;strokeColor=none;fillColor=none;hachureGap=4;fontSize=10;" vertex="1" parent="1">
          <mxGeometry x="1415" y="499" width="80" height="40" as="geometry" />
        </mxCell>
        <mxCell id="NEAT874ut31OaDpRPA5h-236" value="15&lt;br&gt;16&lt;br&gt;3" style="text;html=1;align=right;verticalAlign=middle;resizable=0;points=[];autosize=1;strokeColor=none;fillColor=none;hachureGap=4;fontSize=10;" vertex="1" parent="1">
          <mxGeometry x="1385" y="499" width="30" height="40" as="geometry" />
        </mxCell>
        <mxCell id="NEAT874ut31OaDpRPA5h-237" value="Micro converter&lt;br&gt;SDI -&amp;gt; HDMI" style="rounded=0;whiteSpace=wrap;html=1;hachureGap=4;fontSize=10;strokeColor=#FF8000;connectable=0;horizontal=0;" vertex="1" parent="1">
          <mxGeometry x="1870" y="479" width="40" height="80" as="geometry" />
        </mxCell>
        <mxCell id="NEAT874ut31OaDpRPA5h-238" value="Micro converter&lt;br&gt;HDMI -&amp;gt; SDI" style="rounded=0;whiteSpace=wrap;html=1;hachureGap=4;fontSize=10;strokeColor=#FF8000;connectable=0;horizontal=0;" vertex="1" parent="1">
          <mxGeometry x="1495" y="1198" width="40" height="80" as="geometry" />
        </mxCell>
        <mxCell id="NEAT874ut31OaDpRPA5h-239" value="Micro converter&lt;br&gt;Monitor 3G" style="rounded=0;whiteSpace=wrap;html=1;hachureGap=4;fontSize=10;strokeColor=#FF8000;connectable=0;horizontal=0;" vertex="1" parent="1">
          <mxGeometry x="1760" y="959" width="40" height="80" as="geometry" />
        </mxCell>
        <mxCell id="NEAT874ut31OaDpRPA5h-240" value="QLAB VIDEO" style="endArrow=none;html=1;rounded=0;fontSize=12;startSize=14;endSize=14;sourcePerimeterSpacing=8;targetPerimeterSpacing=8;horizontal=0;edgeStyle=orthogonalEdgeStyle;" edge="1" parent="1">
          <mxGeometry width="50" height="50" relative="1" as="geometry">
            <mxPoint x="1780" y="1219" as="sourcePoint" />
            <mxPoint x="1780" y="1039" as="targetPoint" />
          </mxGeometry>
        </mxCell>
        <mxCell id="NEAT874ut31OaDpRPA5h-241" value="STAGE CLOCK" style="endArrow=none;html=1;rounded=0;fontSize=12;startSize=14;endSize=14;sourcePerimeterSpacing=8;targetPerimeterSpacing=8;horizontal=0;edgeStyle=orthogonalEdgeStyle;" edge="1" parent="1">
          <mxGeometry width="50" height="50" relative="1" as="geometry">
            <mxPoint x="1514" y="1458" as="sourcePoint" />
            <mxPoint x="1514" y="1278" as="targetPoint" />
          </mxGeometry>
        </mxCell>
        <mxCell id="NEAT874ut31OaDpRPA5h-242" value="Micro converter&lt;br&gt;Monitor 3G" style="rounded=0;whiteSpace=wrap;html=1;hachureGap=4;fontSize=10;strokeColor=#FF8000;connectable=0;horizontal=0;" vertex="1" parent="1">
          <mxGeometry x="1910" y="959" width="40" height="80" as="geometry" />
        </mxCell>
        <mxCell id="NEAT874ut31OaDpRPA5h-243" value="Micro converter&lt;br&gt;Monitor 3G" style="rounded=0;whiteSpace=wrap;html=1;hachureGap=4;fontSize=10;strokeColor=#FF8000;connectable=0;horizontal=0;" vertex="1" parent="1">
          <mxGeometry x="1960" y="959" width="40" height="80" as="geometry" />
        </mxCell>
        <mxCell id="NEAT874ut31OaDpRPA5h-244" value="Micro converter&lt;br&gt;Monitor 3G" style="rounded=0;whiteSpace=wrap;html=1;hachureGap=4;fontSize=10;strokeColor=#FF8000;connectable=0;horizontal=0;" vertex="1" parent="1">
          <mxGeometry x="2010" y="959" width="40" height="80" as="geometry" />
        </mxCell>
        <mxCell id="NEAT874ut31OaDpRPA5h-245" value="Thunderbolt hub" style="rounded=0;whiteSpace=wrap;html=1;hachureGap=4;fontSize=10;strokeColor=#FF8000;connectable=0;horizontal=1;" vertex="1" parent="1">
          <mxGeometry x="1910" y="1220" width="140" height="80" as="geometry" />
        </mxCell>
        <mxCell id="NEAT874ut31OaDpRPA5h-246" value="Thunderbolt" style="endArrow=none;html=1;rounded=0;fontSize=12;startSize=14;endSize=14;sourcePerimeterSpacing=8;targetPerimeterSpacing=8;horizontal=0;endFill=0;edgeStyle=orthogonalEdgeStyle;" edge="1" parent="1">
          <mxGeometry width="50" height="50" relative="1" as="geometry">
            <mxPoint x="1979.5000000000005" y="1480" as="sourcePoint" />
            <mxPoint x="1979.5000000000005" y="1300" as="targetPoint" />
          </mxGeometry>
        </mxCell>
        <mxCell id="NEAT874ut31OaDpRPA5h-247" value="FULLSCREEN SONGS" style="endArrow=none;html=1;rounded=0;fontSize=12;startSize=14;endSize=14;sourcePerimeterSpacing=8;targetPerimeterSpacing=8;horizontal=0;edgeStyle=orthogonalEdgeStyle;" edge="1" parent="1">
          <mxGeometry width="50" height="50" relative="1" as="geometry">
            <mxPoint x="2030" y="1219" as="sourcePoint" />
            <mxPoint x="2029.9999999999995" y="1039" as="targetPoint" />
          </mxGeometry>
        </mxCell>
        <mxCell id="NEAT874ut31OaDpRPA5h-248" value="GREEN SONGS" style="endArrow=none;html=1;rounded=0;fontSize=12;startSize=14;endSize=14;sourcePerimeterSpacing=8;targetPerimeterSpacing=8;horizontal=0;edgeStyle=orthogonalEdgeStyle;" edge="1" parent="1">
          <mxGeometry width="50" height="50" relative="1" as="geometry">
            <mxPoint x="1980" y="1219" as="sourcePoint" />
            <mxPoint x="1979.9999999999995" y="1039" as="targetPoint" />
          </mxGeometry>
        </mxCell>
        <mxCell id="NEAT874ut31OaDpRPA5h-249" value="STAGE SONGS" style="endArrow=none;html=1;rounded=0;fontSize=12;startSize=14;endSize=14;sourcePerimeterSpacing=8;targetPerimeterSpacing=8;horizontal=0;edgeStyle=orthogonalEdgeStyle;" edge="1" parent="1">
          <mxGeometry width="50" height="50" relative="1" as="geometry">
            <mxPoint x="1930" y="1219" as="sourcePoint" />
            <mxPoint x="1930" y="1039" as="targetPoint" />
          </mxGeometry>
        </mxCell>
        <mxCell id="NEAT874ut31OaDpRPA5h-250" value="SDI Patch paneel" style="rounded=0;whiteSpace=wrap;html=1;hachureGap=4;fontSize=10;strokeColor=#FF8000;connectable=0;horizontal=1;" vertex="1" parent="1">
          <mxGeometry x="1340" y="959" width="200" height="80" as="geometry" />
        </mxCell>
        <mxCell id="NEAT874ut31OaDpRPA5h-251" value="STAGE CLOCK" style="endArrow=none;html=1;rounded=0;fontSize=12;startSize=14;endSize=14;sourcePerimeterSpacing=8;targetPerimeterSpacing=8;horizontal=0;edgeStyle=orthogonalEdgeStyle;" edge="1" parent="1">
          <mxGeometry width="50" height="50" relative="1" as="geometry">
            <mxPoint x="1519.5" y="959" as="sourcePoint" />
            <mxPoint x="1519.5" y="799" as="targetPoint" />
          </mxGeometry>
        </mxCell>
        <mxCell id="NEAT874ut31OaDpRPA5h-252" value="INPUT 1" style="endArrow=none;html=1;rounded=0;fontSize=12;startSize=14;endSize=14;sourcePerimeterSpacing=8;targetPerimeterSpacing=8;horizontal=0;edgeStyle=orthogonalEdgeStyle;endFill=0;startArrow=none;startFill=0;" edge="1" parent="1">
          <mxGeometry width="50" height="50" relative="1" as="geometry">
            <mxPoint x="1360" y="1199" as="sourcePoint" />
            <mxPoint x="1360" y="1039" as="targetPoint" />
          </mxGeometry>
        </mxCell>
        <mxCell id="NEAT874ut31OaDpRPA5h-253" value="INPUT 2" style="endArrow=none;html=1;rounded=0;fontSize=12;startSize=14;endSize=14;sourcePerimeterSpacing=8;targetPerimeterSpacing=8;horizontal=0;edgeStyle=orthogonalEdgeStyle;endFill=0;startArrow=none;startFill=0;" edge="1" parent="1">
          <mxGeometry width="50" height="50" relative="1" as="geometry">
            <mxPoint x="1410" y="1199" as="sourcePoint" />
            <mxPoint x="1410" y="1039" as="targetPoint" />
          </mxGeometry>
        </mxCell>
        <mxCell id="NEAT874ut31OaDpRPA5h-254" value="INPUT 3" style="endArrow=none;html=1;rounded=0;fontSize=12;startSize=14;endSize=14;sourcePerimeterSpacing=8;targetPerimeterSpacing=8;horizontal=0;edgeStyle=orthogonalEdgeStyle;endFill=0;startArrow=none;startFill=0;" edge="1" parent="1">
          <mxGeometry width="50" height="50" relative="1" as="geometry">
            <mxPoint x="1460" y="1199" as="sourcePoint" />
            <mxPoint x="1460" y="1039" as="targetPoint" />
          </mxGeometry>
        </mxCell>
        <mxCell id="NEAT874ut31OaDpRPA5h-255" value="FULLSCREEN SONGS" style="endArrow=none;html=1;rounded=0;fontSize=12;startSize=14;endSize=14;sourcePerimeterSpacing=8;targetPerimeterSpacing=8;horizontal=0;edgeStyle=orthogonalEdgeStyle;" edge="1" parent="1">
          <mxGeometry width="50" height="50" relative="1" as="geometry">
            <mxPoint x="1889.9999999999995" y="479" as="sourcePoint" />
            <mxPoint x="1890" y="319" as="targetPoint" />
          </mxGeometry>
        </mxCell>
        <mxCell id="NEAT874ut31OaDpRPA5h-262" value="Micro converter&lt;br&gt;SDI -&amp;gt; HDMI" style="rounded=0;whiteSpace=wrap;html=1;hachureGap=4;fontSize=10;strokeColor=#FF8000;connectable=0;horizontal=0;" vertex="1" parent="1">
          <mxGeometry x="2220" y="239" width="40" height="80" as="geometry" />
        </mxCell>
        <mxCell id="NEAT874ut31OaDpRPA5h-263" value="PROGRAM" style="endArrow=none;html=1;rounded=0;fontSize=12;startSize=14;endSize=14;sourcePerimeterSpacing=8;targetPerimeterSpacing=8;labelPosition=center;verticalLabelPosition=middle;align=center;verticalAlign=middle;horizontal=0;edgeStyle=orthogonalEdgeStyle;" edge="1" parent="1">
          <mxGeometry width="50" height="50" relative="1" as="geometry">
            <mxPoint x="2240" y="239" as="sourcePoint" />
            <mxPoint x="2240" y="79" as="targetPoint" />
          </mxGeometry>
        </mxCell>
        <mxCell id="NEAT874ut31OaDpRPA5h-264" value="PROGRAM" style="endArrow=none;html=1;rounded=0;fontSize=12;startSize=14;endSize=14;sourcePerimeterSpacing=8;targetPerimeterSpacing=8;labelPosition=center;verticalLabelPosition=middle;align=center;verticalAlign=middle;horizontal=0;edgeStyle=orthogonalEdgeStyle;" edge="1" parent="1">
          <mxGeometry width="50" height="50" relative="1" as="geometry">
            <mxPoint x="2190" y="479" as="sourcePoint" />
            <mxPoint x="2190" y="319" as="targetPoint" />
          </mxGeometry>
        </mxCell>
        <mxCell id="NEAT874ut31OaDpRPA5h-265" value="Micro converter&lt;br&gt;SDI -&amp;gt; HDMI" style="rounded=0;whiteSpace=wrap;html=1;hachureGap=4;fontSize=10;strokeColor=#FF8000;connectable=0;horizontal=0;" vertex="1" parent="1">
          <mxGeometry x="2170" y="239" width="40" height="80" as="geometry" />
        </mxCell>
        <mxCell id="NEAT874ut31OaDpRPA5h-266" value="PROGRAM" style="endArrow=none;html=1;rounded=0;fontSize=12;startSize=14;endSize=14;sourcePerimeterSpacing=8;targetPerimeterSpacing=8;labelPosition=center;verticalLabelPosition=middle;align=center;verticalAlign=middle;horizontal=0;edgeStyle=orthogonalEdgeStyle;" edge="1" parent="1">
          <mxGeometry width="50" height="50" relative="1" as="geometry">
            <mxPoint x="2190" y="239" as="sourcePoint" />
            <mxPoint x="2190" y="79" as="targetPoint" />
          </mxGeometry>
        </mxCell>
        <mxCell id="NEAT874ut31OaDpRPA5h-267" value="PROGRAM" style="endArrow=none;html=1;rounded=0;fontSize=12;startSize=14;endSize=14;sourcePerimeterSpacing=8;targetPerimeterSpacing=8;labelPosition=center;verticalLabelPosition=middle;align=center;verticalAlign=middle;horizontal=0;edgeStyle=orthogonalEdgeStyle;" edge="1" parent="1">
          <mxGeometry width="50" height="50" relative="1" as="geometry">
            <mxPoint x="2140" y="479" as="sourcePoint" />
            <mxPoint x="2140" y="319" as="targetPoint" />
          </mxGeometry>
        </mxCell>
        <mxCell id="NEAT874ut31OaDpRPA5h-268" value="Micro converter&lt;br&gt;SDI -&amp;gt; HDMI" style="rounded=0;whiteSpace=wrap;html=1;hachureGap=4;fontSize=10;strokeColor=#FF8000;connectable=0;horizontal=0;" vertex="1" parent="1">
          <mxGeometry x="2120" y="239" width="40" height="80" as="geometry" />
        </mxCell>
        <mxCell id="NEAT874ut31OaDpRPA5h-269" value="PROGRAM" style="endArrow=none;html=1;rounded=0;fontSize=12;startSize=14;endSize=14;sourcePerimeterSpacing=8;targetPerimeterSpacing=8;labelPosition=center;verticalLabelPosition=middle;align=center;verticalAlign=middle;horizontal=0;edgeStyle=orthogonalEdgeStyle;" edge="1" parent="1">
          <mxGeometry width="50" height="50" relative="1" as="geometry">
            <mxPoint x="2140" y="239" as="sourcePoint" />
            <mxPoint x="2140" y="79" as="targetPoint" />
          </mxGeometry>
        </mxCell>
        <mxCell id="NEAT874ut31OaDpRPA5h-270" value="PROGRAM" style="endArrow=none;html=1;rounded=0;fontSize=12;startSize=14;endSize=14;sourcePerimeterSpacing=8;targetPerimeterSpacing=8;labelPosition=center;verticalLabelPosition=middle;align=center;verticalAlign=middle;horizontal=0;edgeStyle=orthogonalEdgeStyle;" edge="1" parent="1">
          <mxGeometry width="50" height="50" relative="1" as="geometry">
            <mxPoint x="2090" y="479" as="sourcePoint" />
            <mxPoint x="2090" y="319" as="targetPoint" />
          </mxGeometry>
        </mxCell>
        <mxCell id="NEAT874ut31OaDpRPA5h-271" value="Micro converter&lt;br&gt;SDI -&amp;gt; HDMI" style="rounded=0;whiteSpace=wrap;html=1;hachureGap=4;fontSize=10;strokeColor=#FF8000;connectable=0;horizontal=0;" vertex="1" parent="1">
          <mxGeometry x="2070" y="239" width="40" height="80" as="geometry" />
        </mxCell>
        <mxCell id="NEAT874ut31OaDpRPA5h-272" value="PROGRAM" style="endArrow=none;html=1;rounded=0;fontSize=12;startSize=14;endSize=14;sourcePerimeterSpacing=8;targetPerimeterSpacing=8;labelPosition=center;verticalLabelPosition=middle;align=center;verticalAlign=middle;horizontal=0;edgeStyle=orthogonalEdgeStyle;" edge="1" parent="1">
          <mxGeometry width="50" height="50" relative="1" as="geometry">
            <mxPoint x="2090" y="239" as="sourcePoint" />
            <mxPoint x="2090" y="79" as="targetPoint" />
          </mxGeometry>
        </mxCell>
        <mxCell id="NEAT874ut31OaDpRPA5h-273" value="PROGRAM" style="endArrow=none;html=1;rounded=0;fontSize=12;startSize=14;endSize=14;sourcePerimeterSpacing=8;targetPerimeterSpacing=8;labelPosition=center;verticalLabelPosition=middle;align=center;verticalAlign=middle;horizontal=0;edgeStyle=orthogonalEdgeStyle;" edge="1" parent="1">
          <mxGeometry width="50" height="50" relative="1" as="geometry">
            <mxPoint x="2040" y="479" as="sourcePoint" />
            <mxPoint x="2040" y="319" as="targetPoint" />
          </mxGeometry>
        </mxCell>
        <mxCell id="NEAT874ut31OaDpRPA5h-274" value="Micro converter&lt;br&gt;SDI -&amp;gt; HDMI" style="rounded=0;whiteSpace=wrap;html=1;hachureGap=4;fontSize=10;strokeColor=#FF8000;connectable=0;horizontal=0;" vertex="1" parent="1">
          <mxGeometry x="2020" y="239" width="40" height="80" as="geometry" />
        </mxCell>
        <mxCell id="NEAT874ut31OaDpRPA5h-275" value="PROGRAM" style="endArrow=none;html=1;rounded=0;fontSize=12;startSize=14;endSize=14;sourcePerimeterSpacing=8;targetPerimeterSpacing=8;labelPosition=center;verticalLabelPosition=middle;align=center;verticalAlign=middle;horizontal=0;edgeStyle=orthogonalEdgeStyle;" edge="1" parent="1">
          <mxGeometry width="50" height="50" relative="1" as="geometry">
            <mxPoint x="2040" y="239" as="sourcePoint" />
            <mxPoint x="2040" y="79" as="targetPoint" />
          </mxGeometry>
        </mxCell>
        <mxCell id="NEAT874ut31OaDpRPA5h-276" value="PROGRAM" style="endArrow=none;html=1;rounded=0;fontSize=12;startSize=14;endSize=14;sourcePerimeterSpacing=8;targetPerimeterSpacing=8;labelPosition=center;verticalLabelPosition=middle;align=center;verticalAlign=middle;horizontal=0;edgeStyle=orthogonalEdgeStyle;" edge="1" parent="1">
          <mxGeometry width="50" height="50" relative="1" as="geometry">
            <mxPoint x="1990" y="479" as="sourcePoint" />
            <mxPoint x="1990" y="319" as="targetPoint" />
          </mxGeometry>
        </mxCell>
        <mxCell id="NEAT874ut31OaDpRPA5h-277" value="Micro converter&lt;br&gt;SDI -&amp;gt; HDMI" style="rounded=0;whiteSpace=wrap;html=1;hachureGap=4;fontSize=10;strokeColor=#FF8000;connectable=0;horizontal=0;" vertex="1" parent="1">
          <mxGeometry x="1970" y="239" width="40" height="80" as="geometry" />
        </mxCell>
        <mxCell id="NEAT874ut31OaDpRPA5h-278" value="PROGRAM" style="endArrow=none;html=1;rounded=0;fontSize=12;startSize=14;endSize=14;sourcePerimeterSpacing=8;targetPerimeterSpacing=8;labelPosition=center;verticalLabelPosition=middle;align=center;verticalAlign=middle;horizontal=0;edgeStyle=orthogonalEdgeStyle;" edge="1" parent="1">
          <mxGeometry width="50" height="50" relative="1" as="geometry">
            <mxPoint x="1990" y="239" as="sourcePoint" />
            <mxPoint x="1990" y="79" as="targetPoint" />
          </mxGeometry>
        </mxCell>
        <mxCell id="NEAT874ut31OaDpRPA5h-285" value="MULTI VIEW - ALL" style="endArrow=none;html=1;rounded=0;fontSize=12;startSize=14;endSize=14;sourcePerimeterSpacing=8;targetPerimeterSpacing=8;horizontal=0;edgeStyle=orthogonalEdgeStyle;" edge="1" parent="1">
          <mxGeometry width="50" height="50" relative="1" as="geometry">
            <mxPoint x="1790" y="239" as="sourcePoint" />
            <mxPoint x="1790" y="79" as="targetPoint" />
          </mxGeometry>
        </mxCell>
        <mxCell id="NEAT874ut31OaDpRPA5h-286" value="MULTI VIEW - ALL" style="endArrow=none;html=1;rounded=0;fontSize=12;startSize=14;endSize=14;sourcePerimeterSpacing=8;targetPerimeterSpacing=8;horizontal=0;edgeStyle=orthogonalEdgeStyle;" edge="1" parent="1">
          <mxGeometry width="50" height="50" relative="1" as="geometry">
            <mxPoint x="1740" y="239" as="sourcePoint" />
            <mxPoint x="1740" y="79" as="targetPoint" />
          </mxGeometry>
        </mxCell>
        <mxCell id="NEAT874ut31OaDpRPA5h-287" value="MULTI VIEW - ALL" style="endArrow=none;html=1;rounded=0;fontSize=12;startSize=14;endSize=14;sourcePerimeterSpacing=8;targetPerimeterSpacing=8;horizontal=0;edgeStyle=orthogonalEdgeStyle;" edge="1" parent="1">
          <mxGeometry width="50" height="50" relative="1" as="geometry">
            <mxPoint x="1840" y="239" as="sourcePoint" />
            <mxPoint x="1840" y="79" as="targetPoint" />
          </mxGeometry>
        </mxCell>
        <mxCell id="NEAT874ut31OaDpRPA5h-288" value="Micro converter&lt;br&gt;SDI -&amp;gt; HDMI" style="rounded=0;whiteSpace=wrap;html=1;hachureGap=4;fontSize=10;strokeColor=#FF8000;connectable=0;horizontal=0;" vertex="1" parent="1">
          <mxGeometry x="1720" y="239" width="40" height="80" as="geometry" />
        </mxCell>
        <mxCell id="NEAT874ut31OaDpRPA5h-289" value="Micro converter&lt;br&gt;SDI -&amp;gt; HDMI" style="rounded=0;whiteSpace=wrap;html=1;hachureGap=4;fontSize=10;strokeColor=#FF8000;connectable=0;horizontal=0;" vertex="1" parent="1">
          <mxGeometry x="1770" y="239" width="40" height="80" as="geometry" />
        </mxCell>
        <mxCell id="NEAT874ut31OaDpRPA5h-290" value="Micro converter&lt;br&gt;SDI -&amp;gt; HDMI" style="rounded=0;whiteSpace=wrap;html=1;hachureGap=4;fontSize=10;strokeColor=#FF8000;connectable=0;horizontal=0;" vertex="1" parent="1">
          <mxGeometry x="1820" y="239" width="40" height="80" as="geometry" />
        </mxCell>
        <mxCell id="NEAT874ut31OaDpRPA5h-291" value="Micro converter&lt;br&gt;SDI -&amp;gt; HDMI" style="rounded=0;whiteSpace=wrap;html=1;hachureGap=4;fontSize=10;strokeColor=#FF8000;connectable=0;horizontal=0;" vertex="1" parent="1">
          <mxGeometry x="1670" y="239" width="40" height="80" as="geometry" />
        </mxCell>
        <mxCell id="NEAT874ut31OaDpRPA5h-292" value="STAGE CLOCK" style="endArrow=none;html=1;rounded=0;fontSize=12;startSize=14;endSize=14;sourcePerimeterSpacing=8;targetPerimeterSpacing=8;horizontal=0;edgeStyle=orthogonalEdgeStyle;" edge="1" parent="1">
          <mxGeometry width="50" height="50" relative="1" as="geometry">
            <mxPoint x="1690" y="239" as="sourcePoint" />
            <mxPoint x="1690" y="79" as="targetPoint" />
          </mxGeometry>
        </mxCell>
        <mxCell id="NEAT874ut31OaDpRPA5h-293" value="Display 2 &lt;br&gt;liedteksten" style="rounded=0;whiteSpace=wrap;html=1;hachureGap=4;fontSize=10;strokeColor=#FF8000;connectable=0;horizontal=0;" vertex="1" parent="1">
          <mxGeometry x="1620" y="-241" width="40" height="80" as="geometry" />
        </mxCell>
        <mxCell id="NEAT874ut31OaDpRPA5h-294" value="Stage display 1" style="rounded=0;whiteSpace=wrap;html=1;hachureGap=4;fontSize=10;strokeColor=#FF8000;connectable=0;horizontal=0;" vertex="1" parent="1">
          <mxGeometry x="1560" y="-241" width="40" height="80" as="geometry" />
        </mxCell>
        <mxCell id="NEAT874ut31OaDpRPA5h-295" value="STAGE SONGS" style="endArrow=none;html=1;rounded=0;fontSize=12;startSize=14;endSize=14;sourcePerimeterSpacing=8;targetPerimeterSpacing=8;labelPosition=center;verticalLabelPosition=middle;align=center;verticalAlign=middle;horizontal=0;edgeStyle=orthogonalEdgeStyle;" edge="1" parent="1">
          <mxGeometry width="50" height="50" relative="1" as="geometry">
            <mxPoint x="1579.9999999999995" y="-1" as="sourcePoint" />
            <mxPoint x="1580" y="-161" as="targetPoint" />
          </mxGeometry>
        </mxCell>
        <mxCell id="NEAT874ut31OaDpRPA5h-296" value="MULTI VIEW - SONGS" style="endArrow=none;html=1;rounded=0;fontSize=12;startSize=14;endSize=14;sourcePerimeterSpacing=8;targetPerimeterSpacing=8;horizontal=0;edgeStyle=orthogonalEdgeStyle;endFill=0;" edge="1" parent="1">
          <mxGeometry width="50" height="50" relative="1" as="geometry">
            <mxPoint x="1639.9999999999995" y="-1" as="sourcePoint" />
            <mxPoint x="1640" y="-161" as="targetPoint" />
          </mxGeometry>
        </mxCell>
        <mxCell id="NEAT874ut31OaDpRPA5h-298" value="Micro converter&lt;br&gt;SDI -&amp;gt; HDMI" style="rounded=0;whiteSpace=wrap;html=1;hachureGap=4;fontSize=10;strokeColor=#FF8000;connectable=0;horizontal=0;" vertex="1" parent="1">
          <mxGeometry x="1560" y="-1" width="40" height="80" as="geometry" />
        </mxCell>
        <mxCell id="NEAT874ut31OaDpRPA5h-299" value="Micro converter&lt;br&gt;SDI -&amp;gt; HDMI" style="rounded=0;whiteSpace=wrap;html=1;hachureGap=4;fontSize=10;strokeColor=#FF8000;connectable=0;horizontal=0;" vertex="1" parent="1">
          <mxGeometry x="1620" y="-1" width="40" height="80" as="geometry" />
        </mxCell>
        <mxCell id="NEAT874ut31OaDpRPA5h-300" value="Micro converter&lt;br&gt;SDI -&amp;gt; HDMI" style="rounded=0;whiteSpace=wrap;html=1;hachureGap=4;fontSize=10;strokeColor=#FF8000;connectable=0;horizontal=0;" vertex="1" parent="1">
          <mxGeometry x="1500" y="-1" width="40" height="80" as="geometry" />
        </mxCell>
        <mxCell id="NEAT874ut31OaDpRPA5h-301" value="MULTI VIEW - CAMERA" style="endArrow=none;html=1;rounded=0;fontSize=12;startSize=14;endSize=14;sourcePerimeterSpacing=8;targetPerimeterSpacing=8;horizontal=0;endFill=0;edgeStyle=orthogonalEdgeStyle;" edge="1" parent="1">
          <mxGeometry width="50" height="50" relative="1" as="geometry">
            <mxPoint x="1520" y="-1" as="sourcePoint" />
            <mxPoint x="1520" y="-161" as="targetPoint" />
          </mxGeometry>
        </mxCell>
        <mxCell id="NEAT874ut31OaDpRPA5h-302" value="Versie 1" style="shape=note;whiteSpace=wrap;html=1;backgroundOutline=1;fontColor=#000000;darkOpacity=0.05;fillColor=#FFF9B2;strokeColor=none;fillStyle=solid;direction=west;gradientDirection=north;gradientColor=#FFF2A1;shadow=1;size=20;pointerEvents=1;hachureGap=4;fontSize=20;fontStyle=1" vertex="1" parent="1">
          <mxGeometry x="2460" y="-320" width="140" height="160" as="geometry" />
        </mxCell>
        <mxCell id="NEAT874ut31OaDpRPA5h-303" value="Versie 2" style="shape=note;whiteSpace=wrap;html=1;backgroundOutline=1;fontColor=#000000;darkOpacity=0.05;fillColor=#FFF9B2;strokeColor=none;fillStyle=solid;direction=west;gradientDirection=north;gradientColor=#FFF2A1;shadow=1;size=20;pointerEvents=1;hachureGap=4;fontSize=20;fontStyle=1" vertex="1" parent="1">
          <mxGeometry x="1260" y="-321" width="140" height="160" as="geometry" />
        </mxCell>
      </root>
    </mxGraphModel>
  </diagram>
</mxfile>
